<svg width="32" height="32" fill="none" xmlns="http://www.w3.org/2000/svg"><path d="M5.641 24.502a1.002 1.002 0 0 0 1.247.733 34.238 34.238 0 0 1 18.218-.002 1 1 0 0 0 1.246-.732l3.186-13.54a1.001 1.001 0 0 0-1.38-1.143l-6.322 2.81a1 1 0 0 1-1.28-.428l-3.682-6.627a1 1 0 0 0-1.748 0L11.444 12.2a1 1 0 0 1-1.28.428L3.84 9.818a1 1 0 0 0-1.38 1.142l3.181 13.542Z" stroke="#019ADE" stroke-width="2" stroke-linecap="round" stroke-linejoin="round"/><path d="M12 20.21a38.2 38.2 0 0 1 8 0" stroke="#019ADE" stroke-width="2" stroke-linecap="round" stroke-linejoin="round"/></svg>