<svg width="32" height="32" fill="none" xmlns="http://www.w3.org/2000/svg"><path d="M30 15h-8v-5h5.323a1 1 0 0 1 .928.629L30 15ZM2 18h20" stroke="#019ADE" stroke-width="2" stroke-linecap="round" stroke-linejoin="round"/><path d="M23.5 27a3 3 0 1 0 0-6 3 3 0 0 0 0 6Zm-15 0a3 3 0 1 0 0-6 3 3 0 0 0 0 6Z" stroke="#019ADE" stroke-width="2" stroke-miterlimit="10"/><path d="M20.5 24h-9m-6 0H3a1 1 0 0 1-1-1V9a1 1 0 0 1 1-1h19v13.402m0 0V15h8v8a1 1 0 0 1-1 1h-2.5" stroke="#019ADE" stroke-width="2" stroke-linecap="round" stroke-linejoin="round"/></svg>