<svg width="32" height="32" fill="none" xmlns="http://www.w3.org/2000/svg"><path d="M5 24.5a3.5 3.5 0 1 0 7 0 3.5 3.5 0 0 0-7 0Zm7 0h5.015a6 6 0 0 0 4.242-1.757L26 18" stroke="#019ADE" stroke-width="2" stroke-linecap="round" stroke-linejoin="round"/><path d="M21 18h5v5M20 7.5a3.5 3.5 0 1 0 7 0 3.5 3.5 0 0 0-7 0Zm0 0h-5.015a6 6 0 0 0-4.242 1.758L6 14" stroke="#019ADE" stroke-width="2" stroke-linecap="round" stroke-linejoin="round"/><path d="M11 14H6V9" stroke="#019ADE" stroke-width="2" stroke-linecap="round" stroke-linejoin="round"/></svg>