<svg width="32" height="32" fill="none" xmlns="http://www.w3.org/2000/svg"><path d="M12.073 22.122a1 1 0 0 0-1.265.633c-.819 2.457-3.486 3.218-5.017 3.454.236-1.531.997-4.199 3.454-5.018a1 1 0 1 0-.633-1.897c-2.045.682-3.547 2.306-4.344 4.698a11.592 11.592 0 0 0-.582 3.322 1 1 0 0 0 1 1 11.574 11.574 0 0 0 3.321-.582c2.392-.797 4.017-2.3 4.699-4.345a1 1 0 0 0-.633-1.265Z" fill="#019ADE"/><path d="M28.451 5.227a1.985 1.985 0 0 0-1.679-1.679c-1.41-.21-5.077-.314-8.65 3.26L17 7.928H9.343a1.988 1.988 0 0 0-1.414.587l-4.043 4.042a2 2 0 0 0 1.022 3.376l4.942.988 5.229 5.229.988 4.942a2 2 0 0 0 3.375 1.022l4.043-4.043a1.987 1.987 0 0 0 .586-1.414V15l1.121-1.121c3.574-3.574 3.47-7.24 3.26-8.652ZM9.343 9.93H15l-4.986 4.985-4.714-.942L9.343 9.93Zm12.728 12.728L18.028 26.7l-.943-4.715L22.071 17v5.657Z" fill="#019ADE"/></svg>