<svg width="32" height="32" fill="none" xmlns="http://www.w3.org/2000/svg"><path d="M25.947 7.98C23.356 6.686 19.917 6 16 6c-3.916 0-7.356.685-9.947 1.98C3.477 9.269 2 11.099 2 13v6c0 1.902 1.477 3.732 4.053 5.02C8.644 25.314 12.083 26 16 26c3.916 0 7.356-.685 9.947-1.98C28.523 22.731 30 20.901 30 19v-6c0-1.902-1.477-3.732-4.053-5.02ZM15 19.984v3.999c-2.373-.078-4.378-.429-6-.937v-3.914c1.959.521 3.973.808 6 .852Zm2 0a25.474 25.474 0 0 0 6-.852v3.914c-1.622.508-3.627.86-6 .937v-4ZM4 19v-2.309c.63.523 1.318.969 2.053 1.328.304.152.62.295.947.43v3.804C5.022 21.271 4 20.037 4 19Zm21 3.253V18.45c.327-.135.643-.278.947-.43A10.32 10.32 0 0 0 28 16.691V19c0 1.037-1.022 2.27-3 3.253Z" fill="#019ADE"/></svg>