<svg width="32" height="32" fill="none" xmlns="http://www.w3.org/2000/svg"><path d="M11.757 23.071c-1.414 4.243-7.07 4.243-7.07 4.243s0-5.657 4.242-7.071m15.556-7.071L16 21.657 10.343 16l8.485-8.485c3.213-3.213 6.427-3.182 7.797-2.978a.995.995 0 0 1 .837.838c.205 1.37.236 4.584-2.977 7.797Z" stroke="#019ADE" stroke-width="2" stroke-linecap="round" stroke-linejoin="round"/><path d="M23.071 14.586v8.07a1 1 0 0 1-.293.708l-4.043 4.043a1.001 1.001 0 0 1-1.687-.511L16 21.656m1.414-12.727h-8.07a1 1 0 0 0-.708.293l-4.043 4.043a1 1 0 0 0 .511 1.687L10.344 16" stroke="#019ADE" stroke-width="2" stroke-linecap="round" stroke-linejoin="round"/></svg>