<svg width="32" height="32" fill="none" xmlns="http://www.w3.org/2000/svg"><path d="M28 22.165V9.835a1 1 0 0 0-.51-.872l-11-6.187a1 1 0 0 0-.98 0l-11 6.187a1 1 0 0 0-.51.872v12.33a1 1 0 0 0 .51.872l11 6.187a1 1 0 0 0 .98 0l11-6.187a1 1 0 0 0 .51-.872Z" stroke="#019ADE" stroke-width="2" stroke-linecap="round" stroke-linejoin="round"/><path d="M22.128 19.064v-6.5L10 5.875" stroke="#019ADE" stroke-width="2" stroke-linecap="round" stroke-linejoin="round"/><path d="M27.862 9.328 16.12 16 4.139 9.327M16.119 16 16 29.353" stroke="#019ADE" stroke-width="2" stroke-linecap="round" stroke-linejoin="round"/></svg>