<svg width="140" height="51" fill="none" xmlns="http://www.w3.org/2000/svg"><path fill-rule="evenodd" clip-rule="evenodd" d="M30.418 7.567 25.273 2.42 8.777 18.917l5.146 5.145L30.418 7.567ZM25.273 0 6.355 18.917l7.567 7.566L32.839 7.567 25.273 0Zm-5.146 42.978 5.146 5.146 16.495-16.496-5.145-5.145-16.496 16.495Zm5.146 7.567 18.916-18.917-7.566-7.566-18.917 18.916 7.567 7.567Z" fill="#019ADE"/><path fill-rule="evenodd" clip-rule="evenodd" d="m31.628 8.777-5.145 5.146 16.495 16.495 5.146-5.145L31.628 8.777Zm-7.566 5.146 18.916 18.916 7.567-7.566L31.628 6.355l-7.566 7.567Zm-5.145 27.845 5.145-5.145L7.567 20.127 2.42 25.273l16.496 16.495Zm7.566-5.145L7.567 17.706 0 25.273l18.917 18.916 7.566-7.566Z" fill="#019ADE"/><path d="M77.056 24.604h-2.902l-1.67-4.601h-9.232l-1.67 4.601H58.68L66.33 4.09h3.076l7.65 20.515ZM67.853 7.342 64.19 17.453h7.356l-3.693-10.11Zm21.118 9.73c1.505.625 2.257 1.759 2.257 3.4 0 1.25-.41 2.256-1.23 3.018-.821.743-1.974 1.114-3.46 1.114h-7.326V9.95h6.74c1.447 0 2.57.362 3.371 1.085.82.723 1.231 1.69 1.231 2.901 0 1.407-.528 2.452-1.583 3.136Zm-3.136-4.836h-4.132v3.84h4.132c1.486 0 2.228-.655 2.228-1.964 0-1.25-.743-1.876-2.228-1.876ZM81.703 22.29h4.69c.742 0 1.308-.176 1.7-.528.41-.351.615-.85.615-1.494 0-.606-.206-1.075-.616-1.407-.39-.352-.957-.528-1.7-.528h-4.689v3.957Zm24.411-9.82V9.95h2.549v14.654h-2.549v-2.52c-1.251 1.934-3.097 2.901-5.54 2.901-2.07 0-3.82-.742-5.246-2.227-1.445-1.505-2.168-3.331-2.168-5.48 0-2.13.723-3.947 2.168-5.452 1.446-1.504 3.195-2.257 5.246-2.257 2.443 0 4.289.968 5.54 2.902Zm-5.217 10.053c1.485 0 2.725-.498 3.722-1.494.996-1.036 1.495-2.286 1.495-3.752 0-1.485-.499-2.725-1.495-3.722-.997-1.016-2.237-1.524-3.722-1.524-1.466 0-2.697.508-3.693 1.524-.996.997-1.495 2.237-1.495 3.722 0 1.466.499 2.716 1.495 3.752.997.996 2.227 1.494 3.693 1.494Zm21.77-6.477V9.95h2.549v14.654h-2.549V18.48h-7.591v6.125h-2.55V9.95h2.55v6.096h7.591Zm4.789-6.096H140v2.462h-4.982v12.192h-2.55V12.412h-5.012V9.95ZM69.78 45.567c-1.212 1.212-2.694 1.817-4.448 1.817-1.753 0-3.241-.605-4.464-1.817-1.211-1.222-1.817-2.71-1.817-4.464 0-1.753.606-3.236 1.817-4.447 1.223-1.223 2.71-1.834 4.464-1.834 1.754 0 3.236.611 4.447 1.834 1.223 1.211 1.835 2.694 1.835 4.447 0 1.753-.612 3.242-1.835 4.464Zm-7.51-1.35c.842.82 1.863 1.23 3.062 1.23 1.212 0 2.227-.41 3.046-1.23.83-.83 1.246-1.868 1.246-3.114 0-1.246-.416-2.278-1.246-3.097-.82-.83-1.834-1.246-3.046-1.246-1.21 0-2.232.415-3.062 1.246-.82.819-1.229 1.851-1.229 3.097 0 1.234.41 2.273 1.229 3.115Zm11.038-5.709h7.7v8.651h-1.87v-6.887h-3.962v6.887h-1.868v-8.651Zm16.72 1.228v-1.228h1.87v8.651h-1.87v-1.246c-.703.981-1.713 1.471-3.028 1.471-1.188 0-2.203-.438-3.045-1.315-.842-.877-1.263-1.955-1.263-3.236 0-1.28.42-2.359 1.263-3.235.842-.877 1.857-1.316 3.045-1.316 1.315 0 2.325.485 3.028 1.454Zm-4.689 5.087c.52.52 1.17.779 1.955.779.785 0 1.437-.26 1.956-.779.519-.53.778-1.194.778-1.99s-.26-1.453-.778-1.972c-.52-.53-1.171-.796-1.956-.796-.784 0-1.436.265-1.955.796-.52.519-.779 1.176-.779 1.972 0 .785.26 1.448.779 1.99Zm9.411-6.315h6.627v8.651h-1.868v-6.852h-2.89v3.218c0 1.35-.294 2.32-.882 2.907-.589.589-1.448.831-2.579.727v-1.747c.53.092.929-.018 1.194-.33.266-.322.398-.87.398-1.643v-4.931Zm12.422 6.298 2.214-6.298h1.99l-3.322 8.928c-.404 1.096-.969 1.915-1.696 2.457-.726.542-1.569.785-2.526.727v-1.748c1.107.07 1.875-.484 2.301-1.66l.052-.122-3.633-8.583h1.989l2.631 6.299Zm9.049 2.578c-1.315 0-2.399-.427-3.253-1.28-.83-.865-1.246-1.967-1.246-3.305 0-1.454.22-2.584.658-3.392.427-.796 1.315-1.528 2.665-2.197.046-.023.121-.058.225-.104.115-.058.236-.116.363-.173l.381-.173c.484-.22.784-.358.9-.416a9.59 9.59 0 0 0 .605-.38c.404-.289.675-.698.813-1.229l1.523.883c-.057.634-.455 1.217-1.194 1.747-.127.116-.363.254-.709.416l-.744.346-.865.363c-.75.3-1.304.606-1.662.917-.357.312-.605.71-.744 1.194.692-.784 1.633-1.176 2.821-1.176 1.015 0 1.897.363 2.647 1.09.762.726 1.142 1.667 1.142 2.82 0 1.177-.403 2.146-1.211 2.907-.796.762-1.834 1.142-3.115 1.142Zm-.017-1.747c.727 0 1.321-.214 1.782-.64.462-.439.693-.993.693-1.662 0-.68-.231-1.24-.693-1.678-.45-.439-1.038-.658-1.765-.658-.646 0-1.228.208-1.747.623-.519.392-.779.934-.779 1.627 0 .692.242 1.263.727 1.713.484.45 1.078.675 1.782.675Zm9.524-2.89 3.945 4.412h-2.232l-3.547-3.997v3.997h-1.869v-8.651h1.869v3.824l3.356-3.825h2.285l-3.807 4.24Zm11.361-3.011v-1.228h1.869v8.651h-1.869v-1.246c-.703.981-1.713 1.471-3.028 1.471-1.188 0-2.203-.438-3.045-1.315-.842-.877-1.263-1.955-1.263-3.236 0-1.28.421-2.359 1.263-3.235.842-.877 1.857-1.316 3.045-1.316 1.315 0 2.325.485 3.028 1.454Zm-4.689 5.087c.519.52 1.171.779 1.956.779.784 0 1.436-.26 1.955-.779.519-.53.778-1.194.778-1.99s-.259-1.453-.778-1.972c-.519-.53-1.171-.796-1.955-.796-.785 0-1.437.265-1.956.796-.519.519-.778 1.176-.778 1.972 0 .785.259 1.448.778 1.99Z" fill="#485155"/></svg>