<svg width="32" height="32" fill="none" xmlns="http://www.w3.org/2000/svg"><path d="m31 14.993-.002-.032a.976.976 0 0 0-.006-.082l-.006-.036a.925.925 0 0 0-.053-.2l-.005-.014-.006-.016-.001-.003-1.741-4.353A1.99 1.99 0 0 0 27.323 9H23V8a1 1 0 0 0-1-1H3a2.002 2.002 0 0 0-2 2v14a2.002 2.002 0 0 0 2 2h1.627a4 4 0 0 0 7.746 0h7.254a4 4 0 0 0 7.746 0H29a2.002 2.002 0 0 0 2-2v-8.007ZM23 11h4.323l1.2 3H23v-3ZM3 9h18v8H3V9Zm5.5 17a2 2 0 1 1 0-4 2 2 0 0 1 0 4Zm15 0a2 2 0 1 1 0-4 2 2 0 0 1 0 4Z" fill="#019ADE"/></svg>