<svg width="32" height="32" fill="none" xmlns="http://www.w3.org/2000/svg"><path d="M14.97 26.85a.998.998 0 0 1-1.213.728l-3.767-.942a2.013 2.013 0 0 1-.827-.43l-2.82-2.451a1 1 0 0 1 1.313-1.51l2.819 2.45 3.768.943a1.001 1.001 0 0 1 .727 1.212Zm16.575-11.906a1.986 1.986 0 0 1-1.008 1.173l-2.909 1.455-1.868 2.186-.02.022a1.152 1.152 0 0 1-.019.02l-.014.015-4.6 4.6a2.012 2.012 0 0 1-1.899.526l-7.245-1.812a1.99 1.99 0 0 1-.747-.364l-6.753-5.281-3-1.5a2 2 0 0 1-.879-2.715L3.66 7.382a2.01 2.01 0 0 1 2.667-.863l2.797 1.398 6.084-1.773c.458-.134.949-.1 1.384.097l4.125 1.867h2.048l2.91-1.455a2.009 2.009 0 0 1 2.667.863l3.074 5.887a1.986 1.986 0 0 1 .13 1.541Zm-8.08 4.284-3.956-2.877-1.01.757a5.026 5.026 0 0 1-6 0l-.677-.509a2 2 0 0 1-.214-3.014L16.5 8.694c.071-.07.148-.136.23-.195l-.963-.435-6.09 1.775-3.405 6.52 6.176 4.83L19.694 23l3.772-3.772Zm2.336-2.596-3.407-6.524h-4.479L13.021 15l.678.508a3.016 3.016 0 0 0 3.6 0l1.6-1.2a1 1 0 0 1 1.188-.009l4.752 3.456.96-1.123Z" fill="#019ADE"/></svg>