<svg width="20" height="20" fill="none" xmlns="http://www.w3.org/2000/svg"><path d="m19.375 9.37-.001-.02a.626.626 0 0 0-.004-.05l-.003-.023a.634.634 0 0 0-.034-.125l-.003-.01-.004-.009v-.002l-1.088-2.72a1.244 1.244 0 0 0-1.161-.786h-2.702V5a.625.625 0 0 0-.625-.625H1.875a1.251 1.251 0 0 0-1.25 1.25v8.75a1.252 1.252 0 0 0 1.25 1.25h1.017a2.5 2.5 0 0 0 4.841 0h4.534a2.5 2.5 0 0 0 4.841 0h1.017a1.252 1.252 0 0 0 1.25-1.25V9.37Zm-5-2.495h2.702l.75 1.875h-3.452V6.875Zm-12.5-1.25h11.25v5H1.875v-5ZM5.313 16.25a1.25 1.25 0 1 1 0-2.5 1.25 1.25 0 0 1 0 2.5Zm9.375 0a1.25 1.25 0 1 1 0-2.5 1.25 1.25 0 0 1 0 2.5Z" fill="#019ADE"/></svg>