<svg width="20" height="20" fill="none" xmlns="http://www.w3.org/2000/svg"><path d="m17.963 5.533-.006-.011c0-.002-.002-.003-.003-.005a1.248 1.248 0 0 0-.466-.46L10.613 1.19a1.258 1.258 0 0 0-1.226 0L2.512 5.057a1.25 1.25 0 0 0-.468.462l-.003.006-.006.01a1.25 1.25 0 0 0-.16.612v7.706a1.252 1.252 0 0 0 .637 1.09l6.875 3.867c.173.097.367.151.566.158l.042.003h.006c.02 0 .04-.002.058-.003.195-.01.384-.063.554-.158l6.875-3.867a1.252 1.252 0 0 0 .637-1.09V6.147a1.25 1.25 0 0 0-.162-.614ZM10 2.28l6.23 3.504-2.392 1.36-6.304-3.477L10 2.28Zm.071 7.003L3.78 5.779l2.473-1.392 6.31 3.48-2.492 1.416Zm.563 8.08.062-6.997 2.509-1.426v2.975a.625.625 0 1 0 1.25 0V8.23l2.42-1.375v6.998l-6.24 3.51Z" fill="#019ADE"/></svg>