<svg width="32" height="32" fill="none" xmlns="http://www.w3.org/2000/svg"><g clip-path="url(#a)" fill="#019ADE"><path d="M16 3.75c.518 0 .938-.42.938-.938V.938a.937.937 0 1 0-1.875 0v1.875c0 .518.419.937.937.937Zm4.413 1.6 1.875-1.875a.937.937 0 1 0-1.326-1.325l-1.875 1.875a.937.937 0 1 0 1.326 1.325Zm-8.826 0a.937.937 0 1 0 1.326-1.325L11.038 2.15a.937.937 0 1 0-1.326 1.325l1.875 1.875Zm-3.15 7.9a3.754 3.754 0 0 0-3.75-3.75 3.754 3.754 0 0 0-3.75 3.75A3.754 3.754 0 0 0 4.688 17a3.754 3.754 0 0 0 3.75-3.75Z"/><path d="M16 7.563a2.816 2.816 0 0 0-2.813 2.812c0 3.618-3.006 6.625-6.624 6.625H4.688A4.693 4.693 0 0 0 0 21.688v9.375c0 .518.42.937.938.937h7.5c.517 0 .925-.42.925-.936l.005-8.768c5.475-1.29 9.444-6.22 9.444-11.921A2.816 2.816 0 0 0 16 7.562Zm15.063 5.687a3.754 3.754 0 0 0-3.75-3.75 3.754 3.754 0 0 0-3.75 3.75 3.754 3.754 0 0 0 3.75 3.75 3.754 3.754 0 0 0 3.75-3.75Z"/><path d="M27.313 17h-1.875c-2.156 0-4.119-1.121-5.316-2.732a13.858 13.858 0 0 1-2.78 5.197c1.495 1.32 3.342 2.367 5.29 2.83l.005 8.768c0 .518.408.937.925.937h7.5c.519 0 .938-.42.938-.938v-9.375A4.693 4.693 0 0 0 27.312 17Z"/></g><defs><clipPath id="a"><path fill="#fff" d="M0 0h32v32H0z"/></clipPath></defs></svg>