<svg width="32" height="32" fill="none" xmlns="http://www.w3.org/2000/svg"><path d="M15.15 19.743a7.499 7.499 0 1 0-8.3 0A12.027 12.027 0 0 0 1.182 24.1 1 1 0 0 0 2 25.674h18a1 1 0 0 0 .818-1.576 12.027 12.027 0 0 0-5.668-4.355Z" fill="#019ADE"/><path d="M31.008 24.098a12.026 12.026 0 0 0-5.668-4.355A7.5 7.5 0 0 0 19.156 6.28a1 1 0 0 0-.532 1.56 9.48 9.48 0 0 1 .48 10.611 1 1 0 0 0 .256 1.325c.38.282.744.583 1.093.902a.98.98 0 0 0 .056.058 14.004 14.004 0 0 1 3.185 4.363 1 1 0 0 0 .906.577l5.59-.001a1 1 0 0 0 .818-1.576Z" fill="#019ADE"/></svg>