<svg width="18" height="18" fill="none" xmlns="http://www.w3.org/2000/svg"><path d="M15.88 7.23c-.264-.277-.539-.563-.642-.814-.095-.23-.101-.611-.107-.98-.01-.686-.022-1.464-.563-2.004-.54-.541-1.318-.553-2.004-.563-.369-.006-.75-.012-.98-.107-.25-.103-.537-.378-.813-.643-.486-.466-1.037-.994-1.771-.994s-1.285.528-1.77.994c-.277.265-.563.54-.814.643-.23.095-.611.101-.98.107-.686.01-1.464.022-2.004.563-.541.54-.553 1.318-.563 2.004-.006.369-.012.75-.107.98-.103.25-.378.537-.643.813-.466.486-.994 1.037-.994 1.771s.528 1.285.994 1.77c.265.277.54.563.643.814.095.23.101.611.107.98.01.686.022 1.464.563 2.005.54.54 1.318.552 2.004.562.369.006.75.012.98.107.25.103.537.378.813.643.486.466 1.037.994 1.771.994s1.285-.528 1.77-.994c.277-.265.563-.54.814-.643.23-.095.611-.101.98-.107.686-.01 1.464-.022 2.005-.563.54-.54.552-1.318.562-2.004.006-.369.012-.75.107-.98.103-.25.378-.537.643-.813.466-.486.994-1.037.994-1.771s-.528-1.285-.994-1.77Zm-3.398.49-4.125 3.937a.562.562 0 0 1-.777 0L5.518 9.688a.563.563 0 1 1 .777-.814l1.674 1.598 3.736-3.566a.562.562 0 1 1 .777.813Z" fill="#019ADE"/></svg>