<svg width="11" height="11" fill="none" xmlns="http://www.w3.org/2000/svg"><path d="M5.447.4c1.361 0 2.639.53 3.6 1.492a5.058 5.058 0 0 1 1.488 3.6 5.095 5.095 0 0 1-5.087 5.086h-.003a5.083 5.083 0 0 1-2.43-.62l-2.696.709.721-2.637a5.078 5.078 0 0 1-.68-2.543A5.095 5.095 0 0 1 5.448.4Zm.002.86a4.234 4.234 0 0 0-4.23 4.227c0 .799.224 1.577.647 2.25l.101.16-.428 1.56 1.6-.42.155.093c.65.385 1.394.588 2.152.589h.001A4.234 4.234 0 0 0 9.676 5.49c0-1.13-.44-2.192-1.237-2.991a4.2 4.2 0 0 0-2.99-1.24ZM3.891 3.142c.078.004.182-.029.285.218.106.255.36.88.393.945.031.063.053.137.01.222-.042.085-.064.138-.128.212-.063.074-.133.166-.19.223-.064.063-.13.132-.056.26.074.127.33.542.707.88.486.432.895.567 1.023.63.127.064.201.054.275-.031.074-.085.318-.372.402-.499.085-.127.17-.106.287-.063.116.042.74.35.868.414.127.063.212.095.244.148.032.053.031.308-.074.605-.106.296-.615.568-.859.604a1.742 1.742 0 0 1-.8-.05 7.293 7.293 0 0 1-.725-.268c-1.274-.55-2.106-1.832-2.171-1.92-.064-.084-.519-.69-.519-1.315s.328-.933.445-1.06a.468.468 0 0 1 .339-.16c.084 0 .17.002.244.005Z" fill="#FDFDFD"/></svg>