<svg width="32" height="32" fill="none" xmlns="http://www.w3.org/2000/svg"><path d="M9.75 17a1 1 0 0 0 1-1V4.5a1 1 0 0 0-2 0V16a1 1 0 0 0 1 1Zm18.75 1.61c-.053.036-.107.07-.162.101l-11.22 6.426a2.25 2.25 0 0 1-2.236 0l-11.22-6.426a2.394 2.394 0 0 1-.162-.101v1.926a1.25 1.25 0 0 0 .615 1.077l11.25 6.637a1.25 1.25 0 0 0 1.27 0l11.25-6.637a1.25 1.25 0 0 0 .615-1.077V18.61Z" fill="#019ADE"/><path d="M17 19.5a1 1 0 0 1-2 0v-15a1 1 0 0 1 2 0v15Zm5-2.5a1 1 0 0 0 1-1V4.5a1 1 0 0 0-2 0V16a1 1 0 0 0 1 1Z" fill="#019ADE"/><path d="M11.75 16a2 2 0 1 1-4 0v-2.35l-3.584 2.02a1.25 1.25 0 0 0-.007 2.173l11.22 6.426a1.25 1.25 0 0 0 1.242 0l11.22-6.426a1.25 1.25 0 0 0-.008-2.173L24 13.509v2.49a2 2 0 1 1-4 0v-4.745l-2-1.127V19.5a2 2 0 1 1-4 0v-9.373l-2.25 1.268V16Z" fill="#019ADE"/></svg>