<svg width="32" height="32" fill="none" xmlns="http://www.w3.org/2000/svg"><path d="M21.647 21.035a.941.941 0 0 1 0 1.882H16a.941.941 0 0 1 0-1.882v-5.113c-1.84 1.067-2.823 2.348-2.823 3.7 0 2.54 1.128 4.797 3.443 6.822.654.572.25 1.65-.62 1.65H3.294a.941.941 0 0 1-.823-.485C.828 24.651 0 21.671 0 18.682 0 8.629 11.474 2.756 31.123 4.096a.941.941 0 0 1 .877.939v7.058c0 .52-.421.942-.941.942v4.706a.941.941 0 0 1 0 1.882h-5.647a.941.941 0 1 1 0-1.883v-4.416a37.368 37.368 0 0 0-3.765.594v7.117Zm-12.63 3.782a13.17 13.17 0 0 1-.573-1.184.941.941 0 1 0-1.734.733c.196.463.415.916.657 1.357a.941.941 0 0 0 1.65-.906Zm-1.485-5.424-.003-.239c0-.327.032-.649.095-.966a.941.941 0 1 0-1.846-.367c-.087.44-.131.886-.131 1.333 0 .093.001.186.003.278a.941.941 0 1 0 1.882-.039Zm2.223-4.69c.306-.283.642-.559 1.008-.826a.941.941 0 1 0-1.11-1.52c-.423.309-.815.63-1.176.963a.941.941 0 0 0 1.278 1.382Zm4.94-2.928a26.38 26.38 0 0 1 1.278-.468.941.941 0 0 0-.602-1.784 27.87 27.87 0 0 0-1.371.503.941.941 0 0 0 .694 1.75Zm5.752-1.625c.452-.087.906-.166 1.36-.238a.941.941 0 0 0-.293-1.86 44.59 44.59 0 0 0-1.421.249.941.941 0 1 0 .354 1.849Zm5.898-.738a58.27 58.27 0 0 1 1.387-.076.941.941 0 0 0-.08-1.88c-.478.02-.956.046-1.432.077a.941.941 0 1 0 .125 1.879Zm.95 3.744v4.585h1.881v-4.677c-.627.02-1.255.05-1.882.092Zm-7.713 1.29a20.01 20.01 0 0 0-1.7.596v5.993h1.883v-6.589h-.183Z" fill="#019ADE"/></svg>