<svg width="32" height="32" fill="none" xmlns="http://www.w3.org/2000/svg"><path d="M26.32 11.458V9.223H5.68v2.235c0 .602.49 1.092 1.092 1.092h18.455c.602 0 1.092-.49 1.092-1.092Zm-2.73 19.578V14.425H8.41v16.61c0 .533.432.965.965.965h1.45V17.774c0-.505.388-.94.892-.963a.937.937 0 0 1 .983.936V32h2.415V17.774c0-.505.388-.94.892-.963a.937.937 0 0 1 .983.936V32h2.415V17.774c0-.505.388-.94.892-.963a.937.937 0 0 1 .983.936V32h1.346a.964.964 0 0 0 .964-.964Zm2.911-23.691c1.874-.087 3.41-1.622 3.496-3.496a3.648 3.648 0 0 0-1.013-2.712A3.643 3.643 0 0 0 26.326 0H5.744C3.705 0 2.026 1.626 2 3.625a3.65 3.65 0 0 0 1.06 2.63A3.648 3.648 0 0 0 5.673 7.35c.667 0 1.319-.18 1.886-.52.569-.342.647-.913.53-1.334-.118-.427-.484-.883-1.156-.883-.309 0-.606.119-.829.333a.937.937 0 0 1-1.298-1.352 3.057 3.057 0 0 1 2.127-.856c1.399 0 2.59.907 2.963 2.258a3.042 3.042 0 0 1-.294 2.354h12.732c-.436-.71-.554-1.583-.293-2.444.398-1.317 1.542-2.168 2.914-2.168.815 0 1.608.334 2.176.917a.937.937 0 1 1-1.342 1.31 1.172 1.172 0 0 0-.834-.352c-.639 0-.997.432-1.12.836-.058.192-.196.852.457 1.287a3.649 3.649 0 0 0 2.208.61Z" fill="#019ADE"/></svg>