<svg width="32" height="32" fill="none" xmlns="http://www.w3.org/2000/svg"><path d="m6.966 4.44 2.177-2.177 2.177 2.178a.934.934 0 0 0 1.326 0 .938.938 0 0 0 0-1.326L9.806.275A.937.937 0 0 0 9.143 0a.937.937 0 0 0-.663.275l-2.84 2.84A.938.938 0 0 0 6.966 4.44Zm11.211 0a.937.937 0 0 0 1.326 0l2.84-2.84A.938.938 0 0 0 21.017.275L18.84 2.452 16.663.275A.938.938 0 0 0 15.337 1.6l2.84 2.84Zm10.877 13.918c.247 0 .488-.1.663-.275a.945.945 0 0 0 .275-.663c0-.246-.1-.488-.275-.663a.945.945 0 0 0-.663-.274c-.247 0-.489.1-.663.274a.945.945 0 0 0-.274.663c0 .247.1.489.274.663a.944.944 0 0 0 .663.275Zm0 2.141c-.247 0-.488.1-.663.275a.944.944 0 0 0-.274.663c0 .247.1.488.274.663a.945.945 0 0 0 .663.274c.246 0 .488-.1.663-.274a.946.946 0 0 0 .275-.663c0-.247-.1-.489-.275-.663a.945.945 0 0 0-.663-.275ZM2.008 10.305v20.758c0 .517.42.937.938.937h10.108V6.857H5.456a3.452 3.452 0 0 0-3.448 3.448Zm20.52-3.448h-7.599V32h10.108c.518 0 .938-.42.938-.938V10.305a3.452 3.452 0 0 0-3.448-3.448Z" fill="#019ADE"/></svg>