<svg width="14" height="14" viewBox="0 0 14 14" fill="none" xmlns="http://www.w3.org/2000/svg">
<path d="M12.687 3.05207C12.6868 3.04398 12.6864 3.0359 12.6857 3.02784C12.6852 3.02126 12.6846 3.01472 12.6838 3.00823C12.6829 3.00067 12.6817 2.99315 12.6803 2.98564C12.6791 2.97885 12.6778 2.97212 12.6763 2.96546C12.6747 2.95833 12.6728 2.95127 12.6709 2.94422C12.669 2.93748 12.667 2.9308 12.6648 2.9242C12.6625 2.91731 12.66 2.91053 12.6573 2.90375C12.6548 2.89726 12.6522 2.89084 12.6494 2.88453C12.6464 2.87785 12.6432 2.87129 12.6399 2.86475C12.6367 2.85854 12.6335 2.8524 12.6301 2.84637C12.6265 2.84013 12.6227 2.834 12.6189 2.8279C12.6149 2.82175 12.6109 2.81571 12.6067 2.80977C12.6027 2.80418 12.5986 2.79869 12.5944 2.79324C12.5896 2.78711 12.5846 2.78116 12.5795 2.7753C12.5771 2.77253 12.575 2.7696 12.5725 2.76687C12.5704 2.76458 12.5681 2.76263 12.5659 2.76039C12.5607 2.75486 12.5552 2.74956 12.5496 2.74431C12.5445 2.73945 12.5393 2.73463 12.534 2.73005C12.5287 2.72557 12.5233 2.72132 12.5178 2.71707C12.5118 2.71243 12.5059 2.70782 12.4997 2.70354C12.4944 2.69981 12.4888 2.69635 12.4833 2.69287C12.4768 2.68876 12.4703 2.68466 12.4636 2.68092C12.4578 2.67766 12.4518 2.67471 12.4459 2.67172C12.4393 2.66842 12.4328 2.6651 12.426 2.66215C12.4195 2.65926 12.4128 2.65675 12.4061 2.65419C12.3996 2.65173 12.3932 2.64924 12.3867 2.6471C12.3796 2.64477 12.3724 2.64282 12.3652 2.64084C12.3587 2.63908 12.3523 2.6373 12.3458 2.63585C12.3385 2.63423 12.3312 2.63296 12.3239 2.63171C12.317 2.63053 12.3101 2.62938 12.3031 2.62854C12.2962 2.6277 12.2892 2.62714 12.2822 2.62663C12.2745 2.62607 12.2669 2.62563 12.2592 2.62547C12.2561 2.6254 12.2531 2.625 12.25 2.625H1.75C1.74706 2.625 1.74423 2.62539 1.74129 2.62544C1.73323 2.6256 1.72517 2.62605 1.71713 2.62666C1.71048 2.62716 1.70388 2.62768 1.69734 2.62847C1.69 2.62935 1.68271 2.63055 1.67539 2.63182C1.66842 2.63303 1.66145 2.63421 1.65462 2.63575C1.64773 2.63728 1.64095 2.63915 1.63411 2.64102C1.62722 2.64292 1.62033 2.64477 1.61357 2.64699C1.60674 2.64923 1.60001 2.65184 1.59325 2.65443C1.58687 2.65688 1.58046 2.65929 1.57421 2.66202C1.56725 2.66508 1.56043 2.66853 1.5536 2.67197C1.54786 2.67485 1.54211 2.67767 1.53653 2.6808C1.5297 2.68463 1.52302 2.68884 1.51635 2.69307C1.51101 2.69646 1.50561 2.69982 1.50043 2.70344C1.49416 2.70779 1.4881 2.71246 1.48204 2.71719C1.47664 2.72137 1.4713 2.72556 1.46612 2.73C1.46073 2.7346 1.45552 2.73945 1.45029 2.74438C1.44476 2.74958 1.43934 2.75487 1.43408 2.76036C1.43194 2.76261 1.42959 2.76458 1.42748 2.76687C1.425 2.7696 1.42292 2.77253 1.42051 2.77529C1.41541 2.78116 1.41045 2.78711 1.40564 2.79324C1.40139 2.79869 1.39725 2.80418 1.3933 2.80977C1.38908 2.81571 1.38505 2.82174 1.38113 2.8279C1.37725 2.834 1.37349 2.84013 1.36991 2.84636C1.36649 2.8524 1.36326 2.85854 1.36011 2.86475C1.3568 2.87129 1.35357 2.87785 1.35058 2.88452C1.34777 2.89084 1.34518 2.89726 1.34267 2.90375C1.34003 2.91053 1.33747 2.91731 1.33517 2.9242C1.33298 2.9308 1.33103 2.93747 1.32913 2.94422C1.32716 2.95127 1.32529 2.95833 1.32366 2.96546C1.32217 2.97212 1.32086 2.97885 1.31966 2.98563C1.31832 2.99315 1.31715 3.00067 1.31621 3.00822C1.31541 3.01473 1.31476 3.02126 1.31426 3.02784C1.31362 3.03592 1.31321 3.04399 1.31303 3.05207C1.31295 3.05557 1.3125 3.05898 1.3125 3.0625V10.5C1.31277 10.732 1.40504 10.9544 1.56907 11.1184C1.73311 11.2825 1.95552 11.3747 2.1875 11.375H11.8125C12.0445 11.3747 12.2669 11.2825 12.4309 11.1184C12.595 10.9544 12.6872 10.732 12.6875 10.5V3.0625C12.6875 3.05898 12.687 3.05557 12.687 3.05207ZM2.1875 4.05706L5.39799 7.00002L2.1875 9.94295V4.05706ZM2.87478 10.5L6.04548 7.59354L6.70435 8.1975C6.78504 8.27147 6.89053 8.3125 7 8.3125C7.10947 8.3125 7.21496 8.27147 7.29565 8.1975L7.95455 7.59352L11.1252 10.5H2.87478ZM8.60202 7L11.8126 4.05698L11.813 9.94337L8.60202 7Z" fill="#485155"/>
</svg>
