<svg width="24" height="24" viewBox="0 0 24 24" fill="none" xmlns="http://www.w3.org/2000/svg">
<path d="M21.4262 4.64314C21.3106 4.376 21.1188 4.14884 20.8749 3.99001C20.6309 3.83118 20.3456 3.74772 20.0545 3.75005H3.94532C3.65472 3.75005 3.37037 3.83447 3.12685 3.99304C2.88332 4.15161 2.69109 4.3775 2.57353 4.64327C2.45597 4.90903 2.41814 5.20322 2.46464 5.49008C2.51113 5.77694 2.63995 6.04412 2.83543 6.25914L8.9999 13.04V20.3487C8.99972 20.6202 9.07329 20.8867 9.21276 21.1198C9.35224 21.3528 9.55238 21.5436 9.79182 21.6717C10.0313 21.7998 10.301 21.8605 10.5723 21.8473C10.8435 21.8341 11.1061 21.7475 11.3319 21.5967L14.3319 19.5968C14.5376 19.46 14.7062 19.2745 14.8228 19.0567C14.9393 18.8389 15.0002 18.5957 14.9999 18.3487V13.0401L21.1644 6.25906C21.362 6.0452 21.4921 5.77791 21.5387 5.49053C21.5852 5.20315 21.5461 4.90843 21.4262 4.64314Z" fill="#019ADE"/>
</svg>
