<svg width="14" height="14" viewBox="0 0 14 14" fill="none" xmlns="http://www.w3.org/2000/svg">
<path d="M12.004 4.83621L2.74522 1.63122C2.59005 1.5775 2.42289 1.56852 2.26285 1.60533C2.10282 1.64213 1.95637 1.72323 1.84026 1.83934C1.72414 1.95546 1.64305 2.1019 1.60624 2.26194C1.56944 2.42197 1.57841 2.58913 1.63214 2.7443L4.83707 12.0031C4.89478 12.1759 5.0058 12.326 5.15417 12.4318C5.30253 12.5376 5.48062 12.5936 5.66283 12.5918C5.66822 12.5918 5.67372 12.5918 5.67912 12.5917C5.86413 12.5905 6.04385 12.5298 6.19171 12.4186C6.33958 12.3074 6.44775 12.1516 6.50023 11.9742L7.78843 7.78757L11.9751 6.49937C12.1515 6.44509 12.3062 6.33645 12.4171 6.18897C12.528 6.0415 12.5894 5.86274 12.5926 5.67825C12.5958 5.49375 12.5406 5.31297 12.4349 5.16174C12.3292 5.01051 12.1783 4.89657 12.004 4.83621H12.004Z" fill="#485155"/>
</svg>
