<svg width="14" height="15" viewBox="0 0 14 15" fill="none" xmlns="http://www.w3.org/2000/svg">
<path d="M12.1391 9.16396L9.57763 8.06621C9.44389 8.00864 9.29788 7.98545 9.15289 7.99877C9.0079 8.0121 8.86855 8.0615 8.74754 8.14247L7.378 9.05539C6.54098 8.64829 5.86353 7.97382 5.45273 7.1386L5.45283 7.1385L6.36255 5.74845C6.44173 5.62777 6.48978 5.48935 6.50238 5.34557C6.51498 5.20178 6.49174 5.05711 6.43475 4.92451L5.33598 2.36087C5.26119 2.18685 5.13204 2.04174 4.96787 1.94726C4.8037 1.85279 4.61335 1.81403 4.42531 1.8368C3.68641 1.9318 3.00736 2.29256 2.51503 2.85167C2.0227 3.41079 1.75076 4.13002 1.75 4.875C1.75 9.21732 5.28268 12.75 9.625 12.75C10.37 12.7492 11.0892 12.4773 11.6483 11.9849C12.2075 11.4926 12.5682 10.8135 12.6632 10.0746C12.6859 9.8866 12.6471 9.69627 12.5526 9.53211C12.4582 9.36795 12.3131 9.23879 12.1391 9.16396Z" fill="currentColor"/>
</svg>
