<svg width="24" height="24" viewBox="0 0 24 24" fill="none" xmlns="http://www.w3.org/2000/svg">
<path d="M13.0605 11.9999L19.2801 5.78022C19.4207 5.63954 19.4995 5.44882 19.4995 5.24999C19.4994 5.05117 19.4204 4.8605 19.2798 4.71991C19.1392 4.57932 18.9486 4.50031 18.7497 4.50024C18.5509 4.50018 18.3602 4.57907 18.2195 4.71958L11.9998 10.9393L5.78015 4.71958C5.63947 4.57907 5.44875 4.50018 5.24993 4.50024C5.0511 4.50031 4.86043 4.57932 4.71984 4.71991C4.57925 4.8605 4.50024 5.05117 4.50018 5.24999C4.50011 5.44882 4.57901 5.63954 4.71951 5.78022L10.9392 11.9999L4.71951 18.2196C4.6498 18.2892 4.59448 18.3719 4.55674 18.4629C4.51899 18.5539 4.49954 18.6515 4.49951 18.75C4.49948 18.8485 4.51886 18.9461 4.55656 19.0371C4.59425 19.1282 4.64951 19.2109 4.71918 19.2805C4.78885 19.3502 4.87156 19.4055 4.9626 19.4432C5.05363 19.4809 5.1512 19.5002 5.24973 19.5002C5.34826 19.5002 5.44582 19.4807 5.53683 19.443C5.62784 19.4052 5.71052 19.3499 5.78015 19.2802L11.9998 13.0605L18.2195 19.2802C18.3602 19.4207 18.5509 19.4996 18.7497 19.4995C18.9486 19.4995 19.1392 19.4205 19.2798 19.2799C19.4204 19.1393 19.4994 18.9486 19.4995 18.7498C19.4995 18.551 19.4207 18.3603 19.2801 18.2196L13.0605 11.9999Z" fill="#485155"/>
</svg>
