<svg width="32" height="32" viewBox="0 0 32 32" fill="none" xmlns="http://www.w3.org/2000/svg">
<path d="M5.64104 24.502C5.67222 24.6335 5.72966 24.7573 5.80992 24.866C5.89018 24.9746 5.9916 25.0659 6.10807 25.1344C6.22453 25.2029 6.35365 25.247 6.48764 25.2643C6.62163 25.2816 6.75772 25.2715 6.88774 25.2348C12.8489 23.5889 19.1445 23.5883 25.106 25.2331C25.236 25.2698 25.372 25.2798 25.5059 25.2625C25.6399 25.2453 25.7689 25.2011 25.8854 25.1327C26.0018 25.0643 26.1032 24.973 26.1835 24.8644C26.2637 24.7558 26.3212 24.6321 26.3524 24.5007L29.5385 10.9611C29.5811 10.7798 29.5723 10.5902 29.5131 10.4137C29.4538 10.2372 29.3464 10.0807 29.203 9.96193C29.0596 9.84314 28.8859 9.76674 28.7015 9.74134C28.517 9.71595 28.3291 9.74256 28.1589 9.81819L21.836 12.6284C21.6077 12.7299 21.3496 12.7422 21.1127 12.663C20.8757 12.5837 20.677 12.4186 20.5557 12.2002L16.8741 5.57344C16.7875 5.41755 16.6608 5.28765 16.5071 5.19721C16.3534 5.10677 16.1783 5.05908 16 5.05908C15.8216 5.05908 15.6465 5.10677 15.4928 5.19721C15.3391 5.28765 15.2124 5.41755 15.1258 5.57344L11.4443 12.2002C11.3229 12.4186 11.1242 12.5837 10.8873 12.663C10.6503 12.7422 10.3923 12.7299 10.164 12.6284L3.84004 9.81776C3.66991 9.74215 3.48206 9.71553 3.29762 9.74091C3.11318 9.76628 2.93949 9.84263 2.7961 9.96137C2.65271 10.0801 2.54532 10.2365 2.486 10.413C2.42669 10.5895 2.41782 10.779 2.46039 10.9602L5.64104 24.502Z" stroke="#019ADE" stroke-width="2" stroke-linecap="round" stroke-linejoin="round"/>
<path d="M12 20.2098C14.6593 19.9301 17.3407 19.9301 20 20.2098" stroke="#019ADE" stroke-width="2" stroke-linecap="round" stroke-linejoin="round"/>
</svg>
