<svg width="32" height="32" viewBox="0 0 32 32" fill="none" xmlns="http://www.w3.org/2000/svg">
<path d="M5 24.5002C5 26.4332 6.567 28.0002 8.5 28.0002C10.433 28.0002 12 26.4332 12 24.5002C12 22.5672 10.433 21.0002 8.5 21.0002C6.567 21.0002 5 22.5672 5 24.5002Z" stroke="#019ADE" stroke-width="2" stroke-linecap="round" stroke-linejoin="round"/>
<path d="M12 24.5003L17.0149 24.5001C18.6061 24.5 20.1321 23.8679 21.2573 22.7427L26 18" stroke="#019ADE" stroke-width="2" stroke-linecap="round" stroke-linejoin="round"/>
<path d="M21 18L26 18L26 23" stroke="#019ADE" stroke-width="2" stroke-linecap="round" stroke-linejoin="round"/>
<path d="M20 7.5C20 9.433 21.567 11 23.5 11C25.433 11 27 9.433 27 7.5C27 5.567 25.433 4 23.5 4C21.567 4 20 5.567 20 7.5Z" stroke="#019ADE" stroke-width="2" stroke-linecap="round" stroke-linejoin="round"/>
<path d="M20 7.5L14.9851 7.5002C13.3939 7.50027 11.8679 8.1324 10.7427 9.25756L6 14.0003" stroke="#019ADE" stroke-width="2" stroke-linecap="round" stroke-linejoin="round"/>
<path d="M11 14.0002L6 14.0002L6 9.00024" stroke="#019ADE" stroke-width="2" stroke-linecap="round" stroke-linejoin="round"/>
</svg>
