<svg width="32" height="32" viewBox="0 0 32 32" fill="none" xmlns="http://www.w3.org/2000/svg">
<path d="M28.7409 8.85283C28.7376 8.84673 28.7351 8.8405 28.7317 8.83446C28.7302 8.83189 28.7284 8.82957 28.7269 8.82701C28.5479 8.5199 28.2903 8.2661 27.9805 8.09178L16.9806 1.90428C16.6809 1.73699 16.3433 1.64917 16.0001 1.64917C15.6568 1.64917 15.3193 1.73699 15.0195 1.90428L4.0194 8.09184C3.70846 8.26697 3.45005 8.52214 3.27103 8.83086C3.2691 8.83422 3.26678 8.83727 3.26489 8.84068C3.26184 8.84612 3.25964 8.85179 3.25671 8.85729C3.08875 9.15578 3.00035 9.49244 3 9.83495V22.1653C3.00028 22.5201 3.09482 22.8685 3.27396 23.1748C3.4531 23.4811 3.7104 23.7342 4.01953 23.9084L15.0197 30.096C15.2967 30.2509 15.6068 30.3375 15.924 30.3487C15.9467 30.3505 15.9694 30.3525 15.9926 30.3528H16.0016C16.0331 30.3528 16.0641 30.3509 16.0949 30.3481C16.4057 30.3342 16.709 30.2479 16.9805 30.0959L27.9805 23.9084C28.2896 23.7343 28.5469 23.4811 28.7261 23.1748C28.9052 22.8685 28.9998 22.5201 29 22.1653V9.83495C28.9997 9.49072 28.9104 9.15241 28.7409 8.85283ZM16 3.64745L25.968 9.25445L22.1404 11.4289L12.055 5.8665L16 3.64745ZM16.1138 14.8528L6.04736 9.24584L10.0048 7.01976L20.1005 12.5879L16.1138 14.8528ZM17.0152 27.7817L17.1136 16.585L21.1278 14.3044V19.064C21.1278 19.3292 21.2332 19.5835 21.4207 19.7711C21.6082 19.9586 21.8626 20.064 22.1278 20.064C22.393 20.064 22.6474 19.9586 22.8349 19.7711C23.0224 19.5835 23.1278 19.3292 23.1278 19.064V13.1682L27 10.9684V22.1653L17.0152 27.7817Z" fill="#019ADE"/>
</svg>
