<svg width="32" height="32" viewBox="0 0 32 32" fill="none" xmlns="http://www.w3.org/2000/svg">
<path d="M26.364 18.3641C25.0795 19.6401 23.4417 20.5014 21.6624 20.8364C19.8831 21.1715 18.0442 20.965 16.3835 20.2436L9.87818 27.7751C9.86225 27.7936 9.84569 27.8114 9.8285 27.8286C9.07822 28.5781 8.061 28.999 7.00048 28.9987C5.93997 28.9985 4.92296 28.5771 4.17306 27.8272C3.42316 27.0773 3.00174 26.0603 3.00146 24.9998C3.00119 23.9392 3.42207 22.922 4.17158 22.1717C4.18879 22.1545 4.20667 22.1379 4.22504 22.1219L11.7567 15.6166C11.033 13.9657 10.8216 12.1357 11.1497 10.3634C11.4778 8.59101 12.3303 6.95795 13.5969 5.67554C14.8635 4.39314 16.4859 3.52045 18.254 3.17042C20.0222 2.82039 21.8547 3.00915 23.5143 3.71226C23.6651 3.77624 23.7979 3.87626 23.901 4.00355C24.0041 4.13083 24.0744 4.28148 24.1056 4.44227C24.1369 4.60305 24.1282 4.76906 24.0804 4.9257C24.0325 5.08235 23.9469 5.22485 23.8311 5.34068L18.9643 10.2074L19.4357 12.5644L21.7927 13.0359L26.6596 8.16905C26.7754 8.05326 26.9179 7.96768 27.0745 7.91982C27.2312 7.87196 27.3972 7.86329 27.5579 7.89457C27.7187 7.92584 27.8694 7.99611 27.9966 8.0992C28.1239 8.20229 28.2239 8.33505 28.2879 8.48582C28.9924 10.1359 29.1856 11.9593 28.8427 13.7204C28.4997 15.4814 27.6362 17.0991 26.364 18.3641Z" fill="#019ADE"/>
</svg>
