<svg width="18" height="18" viewBox="0 0 18 18" fill="none" xmlns="http://www.w3.org/2000/svg">
<path d="M16.7856 5.17041C16.6246 5.03606 16.4292 4.94967 16.2215 4.92107C16.0138 4.89248 15.8022 4.92285 15.611 5.0087L12.0543 6.5895L9.98345 2.86191C9.88603 2.68651 9.74348 2.54037 9.57056 2.43861C9.39765 2.33686 9.20067 2.2832 9.00004 2.2832C8.79941 2.2832 8.60243 2.33686 8.42951 2.43861C8.2566 2.54037 8.11404 2.68651 8.01662 2.86191L5.9457 6.58943L2.38847 5.00843C2.19707 4.92339 1.98574 4.89346 1.77826 4.92202C1.57078 4.95058 1.37539 5.03649 1.21409 5.17007C1.05279 5.30366 0.931974 5.47962 0.865254 5.67814C0.798535 5.87666 0.788556 6.08987 0.836441 6.29376L2.62556 13.9109C2.65961 14.0584 2.72335 14.1974 2.81291 14.3194C2.90247 14.4414 3.01596 14.5438 3.14645 14.6205C3.27762 14.6977 3.42298 14.7478 3.57388 14.7677C3.72478 14.7877 3.87815 14.7771 4.02488 14.7366C7.27963 13.8381 10.717 13.8377 13.9719 14.7357C14.1186 14.7761 14.2719 14.7867 14.4227 14.7667C14.5735 14.7468 14.7188 14.6967 14.8499 14.6195C14.9803 14.5429 15.0938 14.4406 15.1834 14.3187C15.2729 14.1968 15.3367 14.0579 15.3708 13.9105L17.163 6.29438C17.2118 6.09048 17.2022 5.87699 17.1355 5.67826C17.0688 5.47952 16.9475 5.30354 16.7856 5.17041Z" fill="white"/>
</svg>
