<svg width="18" height="18" viewBox="0 0 18 18" fill="none" xmlns="http://www.w3.org/2000/svg">
<path d="M9.28126 15.187H3.35156C3.20859 15.187 3.07148 15.1302 2.97039 15.0291C2.86929 14.928 2.8125 14.7909 2.8125 14.6479V8.71825C2.8125 7.86876 2.97982 7.02759 3.3049 6.24277C3.62999 5.45795 4.10647 4.74484 4.70715 4.14416C5.30783 3.54348 6.02094 3.067 6.80576 2.74191C7.59058 2.41683 8.43175 2.24951 9.28124 2.24951H9.28125C10.1307 2.24951 10.9719 2.41683 11.7567 2.74192C12.5416 3.067 13.2547 3.54349 13.8553 4.14416C14.456 4.74484 14.9325 5.45795 15.2576 6.24278C15.5827 7.0276 15.75 7.86877 15.75 8.71826V8.71827C15.75 10.4339 15.0685 12.0792 13.8554 13.2924C12.6422 14.5055 10.9969 15.187 9.28126 15.187Z" stroke="#C5C5C5" stroke-linecap="round" stroke-linejoin="round"/>
</svg>
