<svg width="140" height="51" viewBox="0 0 140 51" fill="none" xmlns="http://www.w3.org/2000/svg">
<path fill-rule="evenodd" clip-rule="evenodd" d="M30.4178 7.56663L25.2725 2.42132L8.77729 18.9166L13.9226 24.0619L30.4178 7.56663ZM25.2725 8.26869e-07L6.35597 18.9166L13.9226 26.4832L32.8392 7.56663L25.2725 8.26869e-07Z" fill="#019ADE"/>
<path fill-rule="evenodd" clip-rule="evenodd" d="M20.1272 42.9784L25.2725 48.1237L41.7678 31.6285L36.6225 26.4832L20.1272 42.9784ZM25.2725 50.5451L44.1891 31.6285L36.6225 24.0619L17.7059 42.9784L25.2725 50.5451Z" fill="#019ADE"/>
<path fill-rule="evenodd" clip-rule="evenodd" d="M31.6285 8.77729L26.4832 13.9226L42.9784 30.4178L48.1237 25.2725L31.6285 8.77729ZM24.0619 13.9226L42.9784 32.8392L50.5451 25.2725L31.6285 6.35597L24.0619 13.9226Z" fill="#019ADE"/>
<path fill-rule="evenodd" clip-rule="evenodd" d="M18.9166 41.7678L24.0619 36.6225L7.56663 20.1272L2.42132 25.2725L18.9166 41.7678ZM26.4832 36.6225L7.56663 17.7059L1.63009e-06 25.2725L18.9166 44.1891L26.4832 36.6225Z" fill="#019ADE"/>
<path d="M77.0557 24.6042H74.1542L72.4837 20.0029H63.2519L61.5814 24.6042H58.6799L66.3292 4.08897H69.4064L77.0557 24.6042ZM67.8532 7.34209L64.1897 17.4532H71.5459L67.8532 7.34209Z" fill="#485155"/>
<path d="M88.9714 17.0722C90.4759 17.6974 91.2281 18.8306 91.2281 20.4718C91.2281 21.7223 90.8178 22.7285 89.9972 23.4905C89.1766 24.2329 88.0238 24.6042 86.5389 24.6042H79.2121V9.95046H85.9528C87.3986 9.95046 88.5221 10.3119 89.3231 11.0348C90.1437 11.7577 90.554 12.7249 90.554 13.9363C90.554 15.343 90.0265 16.3883 88.9714 17.0722ZM85.8355 12.2364H81.7032V16.0757H85.8355C87.3205 16.0757 88.0629 15.4212 88.0629 14.1121C88.0629 12.8617 87.3205 12.2364 85.8355 12.2364ZM81.7032 22.2889H86.3924C87.1348 22.2889 87.7014 22.113 88.0922 21.7613C88.5025 21.4097 88.7077 20.9114 88.7077 20.2667C88.7077 19.661 88.5025 19.1921 88.0922 18.8599C87.7014 18.5082 87.1348 18.3324 86.3924 18.3324H81.7032V22.2889Z" fill="#485155"/>
<path d="M106.114 12.4709V9.95046H108.663V24.6042H106.114V22.0837C104.863 24.018 103.017 24.9852 100.574 24.9852C98.5034 24.9852 96.7547 24.2427 95.3284 22.7578C93.8826 21.2534 93.1596 19.4265 93.1596 17.2773C93.1596 15.1476 93.8826 13.3306 95.3284 11.8261C96.7742 10.3217 98.5229 9.56946 100.574 9.56946C103.017 9.56946 104.863 10.5366 106.114 12.4709ZM100.897 22.5233C102.382 22.5233 103.622 22.0251 104.619 21.0287C105.615 19.9931 106.114 18.7427 106.114 17.2773C106.114 15.7924 105.615 14.5517 104.619 13.5553C103.622 12.5393 102.382 12.0313 100.897 12.0313C99.4314 12.0313 98.2005 12.5393 97.2041 13.5553C96.2076 14.5517 95.7094 15.7924 95.7094 17.2773C95.7094 18.7427 96.2076 19.9931 97.2041 21.0287C98.2005 22.0251 99.4314 22.5233 100.897 22.5233Z" fill="#485155"/>
<path d="M122.667 16.0464V9.95046H125.216V24.6042H122.667V18.4789H115.076V24.6042H112.526V9.95046H115.076V16.0464H122.667Z" fill="#485155"/>
<path d="M127.456 9.95046H140V12.4123H135.018V24.6042H132.468V12.4123H127.456V9.95046Z" fill="#485155"/>
<path d="M69.7794 45.5674C68.5681 46.7786 67.0858 47.3842 65.3323 47.3842C63.5789 47.3842 62.0908 46.7786 60.868 45.5674C59.6567 44.3446 59.0511 42.8564 59.0511 41.103C59.0511 39.3496 59.6567 37.8672 60.868 36.656C62.0908 35.4332 63.5789 34.8218 65.3323 34.8218C67.0858 34.8218 68.5681 35.4332 69.7794 36.656C71.0022 37.8672 71.6136 39.3496 71.6136 41.103C71.6136 42.8564 71.0022 44.3446 69.7794 45.5674ZM62.2696 44.2177C63.1117 45.0367 64.1326 45.4462 65.3323 45.4462C66.5436 45.4462 67.5587 45.0367 68.3778 44.2177C69.2083 43.3871 69.6236 42.3489 69.6236 41.103C69.6236 39.8571 69.2083 38.8247 68.3778 38.0057C67.5587 37.1751 66.5436 36.7598 65.3323 36.7598C64.1211 36.7598 63.1002 37.1751 62.2696 38.0057C61.4505 38.8247 61.041 39.8571 61.041 41.103C61.041 42.3373 61.4505 43.3756 62.2696 44.2177Z" fill="#485155"/>
<path d="M73.3076 38.5075H81.0077V47.1593H79.1389V40.2724H75.1763V47.1593H73.3076V38.5075Z" fill="#485155"/>
<path d="M90.0283 39.736V38.5075H91.8971V47.1593H90.0283V45.9134C89.3246 46.894 88.3152 47.3842 87.0001 47.3842C85.812 47.3842 84.7968 46.9459 83.9547 46.0692C83.1126 45.1924 82.6915 44.1138 82.6915 42.8334C82.6915 41.5529 83.1126 40.4743 83.9547 39.5976C84.7968 38.7209 85.812 38.2825 87.0001 38.2825C88.3152 38.2825 89.3246 38.767 90.0283 39.736ZM85.339 44.8233C85.8581 45.3424 86.5099 45.602 87.2943 45.602C88.0787 45.602 88.7305 45.3424 89.2496 44.8233C89.7687 44.2927 90.0283 43.6293 90.0283 42.8334C90.0283 42.0374 89.7687 41.3799 89.2496 40.8608C88.7305 40.3301 88.0787 40.0648 87.2943 40.0648C86.5099 40.0648 85.8581 40.3301 85.339 40.8608C84.8199 41.3799 84.5603 42.0374 84.5603 42.8334C84.5603 43.6178 84.8199 44.2811 85.339 44.8233Z" fill="#485155"/>
<path d="M94.7502 38.5075H101.377V47.1593H99.5087V40.307H96.6189V43.5255C96.6189 44.8752 96.3248 45.8442 95.7365 46.4325C95.1481 47.0209 94.2887 47.2631 93.1582 47.1593V45.4116C93.6889 45.5039 94.0868 45.3943 94.3522 45.0829C94.6175 44.7598 94.7502 44.2119 94.7502 43.439V38.5075Z" fill="#485155"/>
<path d="M107.172 44.806L109.386 38.5075H111.376L108.054 47.4361C107.65 48.532 107.085 49.3511 106.358 49.8933C105.632 50.4354 104.789 50.6777 103.832 50.62V48.8724C104.939 48.9416 105.707 48.3879 106.133 47.2112L106.185 47.0901L102.552 38.5075H104.541L107.172 44.806Z" fill="#485155"/>
<path d="M116.221 47.3842C114.906 47.3842 113.822 46.9574 112.968 46.1038C112.138 45.2386 111.722 44.1369 111.722 42.7988C111.722 41.3453 111.942 40.2148 112.38 39.4073C112.807 38.6113 113.695 37.8788 115.045 37.2097C115.091 37.1866 115.166 37.152 115.27 37.1059C115.385 37.0482 115.506 36.9905 115.633 36.9328C115.76 36.8752 115.887 36.8175 116.014 36.7598C116.498 36.5406 116.798 36.4022 116.914 36.3445C116.983 36.3099 117.185 36.183 117.519 35.9638C117.923 35.6754 118.194 35.2659 118.332 34.7353L119.855 35.6178C119.798 36.2522 119.4 36.8348 118.661 37.3654C118.534 37.4808 118.298 37.6192 117.952 37.7807L117.208 38.1268L116.343 38.4902C115.593 38.7901 115.039 39.0958 114.681 39.4073C114.324 39.7187 114.076 40.1167 113.937 40.6012C114.629 39.8168 115.57 39.4246 116.758 39.4246C117.773 39.4246 118.655 39.7879 119.405 40.5147C120.167 41.2414 120.547 42.1816 120.547 43.3352C120.547 44.5118 120.144 45.4808 119.336 46.2422C118.54 47.0036 117.502 47.3842 116.221 47.3842ZM116.204 45.6366C116.931 45.6366 117.525 45.4232 117.986 44.9963C118.448 44.558 118.679 44.0043 118.679 43.3352C118.679 42.6546 118.448 42.0951 117.986 41.6567C117.536 41.2184 116.948 40.9992 116.221 40.9992C115.575 40.9992 114.993 41.2068 114.474 41.6221C113.955 42.0143 113.695 42.5565 113.695 43.2487C113.695 43.9408 113.937 44.5118 114.422 44.9617C114.906 45.4116 115.5 45.6366 116.204 45.6366Z" fill="#485155"/>
<path d="M125.728 42.7469L129.673 47.1593H127.441L123.894 43.1621V47.1593H122.025V38.5075H123.894V42.3316L127.25 38.5075H129.535L125.728 42.7469Z" fill="#485155"/>
<path d="M137.089 39.736V38.5075H138.958V47.1593H137.089V45.9134C136.386 46.894 135.376 47.3842 134.061 47.3842C132.873 47.3842 131.858 46.9459 131.016 46.0692C130.174 45.1924 129.753 44.1138 129.753 42.8334C129.753 41.5529 130.174 40.4743 131.016 39.5976C131.858 38.7209 132.873 38.2825 134.061 38.2825C135.376 38.2825 136.386 38.767 137.089 39.736ZM132.4 44.8233C132.919 45.3424 133.571 45.602 134.356 45.602C135.14 45.602 135.792 45.3424 136.311 44.8233C136.83 44.2927 137.089 43.6293 137.089 42.8334C137.089 42.0374 136.83 41.3799 136.311 40.8608C135.792 40.3301 135.14 40.0648 134.356 40.0648C133.571 40.0648 132.919 40.3301 132.4 40.8608C131.881 41.3799 131.622 42.0374 131.622 42.8334C131.622 43.6178 131.881 44.2811 132.4 44.8233Z" fill="#485155"/>
</svg>
