<svg width="20" height="20" viewBox="0 0 20 20" fill="none" xmlns="http://www.w3.org/2000/svg">
<path d="M13.5966 3.73053C12.6315 2.61609 11.5454 1.61241 10.3584 0.73801C10.2534 0.664455 10.1282 0.625 10 0.625C9.87176 0.625 9.74662 0.664455 9.64157 0.73801C8.4546 1.61241 7.36853 2.61609 6.40339 3.73053C4.25865 6.19696 3.125 8.79717 3.125 11.25C3.125 13.0734 3.84933 14.8221 5.13864 16.1114C6.42795 17.4007 8.17664 18.125 10 18.125C11.8234 18.125 13.572 17.4007 14.8614 16.1114C16.1507 14.8221 16.875 13.0734 16.875 11.25C16.875 8.79717 15.7413 6.19696 13.5966 3.73053ZM14.3135 11.9841C14.1617 12.8767 13.7359 13.7 13.0953 14.3399C12.4546 14.9797 11.6308 15.4044 10.738 15.5551C10.5746 15.5826 10.4069 15.544 10.2718 15.4479C10.1368 15.3517 10.0455 15.2059 10.018 15.0424C9.99051 14.879 10.0291 14.7113 10.1252 14.5763C10.2214 14.4412 10.3672 14.3499 10.5307 14.3224C11.1675 14.2149 11.7551 13.912 12.2121 13.4556C12.6691 12.9992 12.9727 12.4119 13.081 11.7752C13.1087 11.6118 13.2002 11.4661 13.3354 11.3701C13.4705 11.2741 13.6383 11.2357 13.8017 11.2634C13.9651 11.2911 14.1109 11.3826 14.2068 11.5178C14.3028 11.6529 14.3412 11.8207 14.3135 11.9841Z" fill="#019ADE"/>
</svg>
