<svg width="20" height="20" viewBox="0 0 20 20" fill="none" xmlns="http://www.w3.org/2000/svg">
<path d="M16.4776 11.4775C15.6747 12.275 14.6511 12.8132 13.539 13.0227C12.427 13.2321 11.2777 13.103 10.2397 12.6521L6.17392 17.3593C6.16397 17.3709 6.15362 17.382 6.14287 17.3927C5.67395 17.8612 5.03819 18.1243 4.37536 18.1241C3.71254 18.1239 3.07691 17.8605 2.60822 17.3919C2.13953 16.9232 1.87615 16.2876 1.87598 15.6247C1.8758 14.9619 2.13885 14.3261 2.6073 13.8572C2.61805 13.8465 2.62923 13.8361 2.64071 13.8261L7.34797 9.76022C6.89571 8.72846 6.76355 7.58469 6.96861 6.47698C7.17367 5.36926 7.7065 4.34859 8.49813 3.54709C9.28976 2.74559 10.3037 2.20016 11.4088 1.98139C12.5139 1.76262 13.6592 1.8806 14.6965 2.32004C14.7908 2.36003 14.8738 2.42254 14.9382 2.50209C15.0026 2.58165 15.0465 2.6758 15.0661 2.77629C15.0856 2.87679 15.0802 2.98054 15.0503 3.07844C15.0204 3.17635 14.9669 3.26541 14.8945 3.3378L11.8527 6.37949L12.1474 7.85265L13.6205 8.1473L16.6623 5.10553C16.7347 5.03316 16.8237 4.97968 16.9216 4.94977C17.0195 4.91985 17.1233 4.91443 17.2238 4.93398C17.3243 4.95353 17.4184 4.99745 17.498 5.06188C17.5775 5.12631 17.64 5.20928 17.68 5.30352C18.1203 6.33479 18.2411 7.47445 18.0267 8.5751C17.8124 9.67576 17.2727 10.6868 16.4776 11.4775Z" fill="#019ADE"/>
</svg>
