<svg width="20" height="20" viewBox="0 0 20 20" fill="none" xmlns="http://www.w3.org/2000/svg">
<path d="M13.7499 9.06257C13.7499 9.98967 13.475 10.8959 12.9599 11.6668C12.4449 12.4377 11.7128 13.0385 10.8562 13.3933C9.99972 13.748 9.05722 13.8409 8.14793 13.66C7.23865 13.4791 6.40341 13.0327 5.74786 12.3771C5.0923 11.7216 4.64586 10.8863 4.46499 9.97705C4.28412 9.06777 4.37695 8.12527 4.73173 7.26874C5.08652 6.41221 5.68733 5.68012 6.45818 5.16505C7.22904 4.64999 8.13532 4.37507 9.06242 4.37507C10.3052 4.37648 11.4967 4.87079 12.3754 5.74956C13.2542 6.62833 13.7485 7.8198 13.7499 9.06257ZM17.9414 17.9421C17.8242 18.0593 17.6652 18.1251 17.4995 18.1251C17.3337 18.1251 17.1747 18.0593 17.0575 17.9421L13.6807 14.5653C12.2604 15.7577 10.4346 16.3558 8.5841 16.2348C6.73357 16.1139 5.00117 15.2833 3.74815 13.9161C2.49514 12.549 1.81825 10.751 1.85864 8.89692C1.89904 7.04289 2.65359 5.27602 3.96496 3.96476C5.27633 2.65351 7.04327 1.89911 8.8973 1.85887C10.7513 1.81864 12.5493 2.49569 13.9164 3.74882C15.2834 5.00195 16.1139 6.73443 16.2346 8.58497C16.3554 10.4355 15.7572 12.2612 14.5646 13.6814L17.9414 17.0582C18.0586 17.1754 18.1245 17.3344 18.1245 17.5001C18.1245 17.6659 18.0586 17.8249 17.9414 17.9421ZM9.06242 15.0001C10.2367 15.0001 11.3847 14.6518 12.3611 13.9994C13.3375 13.347 14.0986 12.4197 14.548 11.3348C14.9973 10.2498 15.1149 9.05598 14.8858 7.90422C14.6567 6.75246 14.0912 5.6945 13.2609 4.86412C12.4305 4.03375 11.3725 3.46826 10.2208 3.23916C9.06901 3.01006 7.87517 3.12764 6.79024 3.57703C5.7053 4.02643 4.77799 4.78745 4.12557 5.76387C3.47315 6.74029 3.12492 7.88824 3.12492 9.06257C3.1267 10.6367 3.75283 12.1459 4.86594 13.259C5.97905 14.3722 7.48824 14.9983 9.06242 15.0001Z" fill="#019ADE"/>
</svg>
