<svg width="20" height="20" viewBox="0 0 20 20" fill="none" xmlns="http://www.w3.org/2000/svg">
<path d="M19.3748 9.37038C19.3747 9.36382 19.374 9.35726 19.3738 9.3507C19.3731 9.33334 19.372 9.3161 19.3699 9.29912C19.369 9.29176 19.3678 9.28443 19.3666 9.27707C19.3639 9.26017 19.3607 9.24354 19.3567 9.2271C19.3551 9.2205 19.3534 9.21394 19.3516 9.20734C19.3464 9.18853 19.3403 9.1701 19.3333 9.15203C19.3322 9.14901 19.3315 9.14589 19.3303 9.14287L19.3264 9.13322L19.3256 9.13109L18.2375 6.41075C18.1454 6.17833 17.9854 5.97904 17.7783 5.83888C17.5713 5.69872 17.3269 5.62419 17.0769 5.625H14.375V5C14.375 4.83424 14.3091 4.67528 14.1919 4.55807C14.0747 4.44086 13.9158 4.37501 13.75 4.375H1.875C1.5436 4.37538 1.22587 4.5072 0.991535 4.74154C0.757197 4.97587 0.625379 5.2936 0.625 5.625V14.375C0.625379 14.7064 0.757197 15.0241 0.991535 15.2585C1.22587 15.4928 1.5436 15.6246 1.875 15.625H2.89162C3.03024 16.1617 3.34326 16.637 3.78146 16.9764C4.21967 17.3158 4.75823 17.5 5.3125 17.5C5.86677 17.5 6.40533 17.3158 6.84354 16.9764C7.28174 16.637 7.59476 16.1617 7.73338 15.625H12.2666C12.4052 16.1617 12.7183 16.637 13.1565 16.9764C13.5947 17.3158 14.1332 17.5 14.6875 17.5C15.2418 17.5 15.7803 17.3158 16.2185 16.9764C16.6567 16.637 16.9698 16.1617 17.1084 15.625H18.125C18.4564 15.6246 18.7741 15.4928 19.0085 15.2585C19.2428 15.0241 19.3746 14.7064 19.375 14.375V9.375C19.375 9.37344 19.3748 9.37195 19.3748 9.37038ZM14.375 6.875H17.0769L17.8268 8.75H14.375V6.875ZM1.875 5.625H13.125V10.625H1.875V5.625ZM5.3125 16.25C5.06527 16.25 4.8236 16.1767 4.61804 16.0393C4.41248 15.902 4.25226 15.7068 4.15765 15.4784C4.06304 15.2499 4.03829 14.9986 4.08652 14.7561C4.13475 14.5137 4.2538 14.2909 4.42862 14.1161C4.60343 13.9413 4.82616 13.8222 5.06864 13.774C5.31111 13.7258 5.56245 13.7505 5.79086 13.8451C6.01926 13.9398 6.21449 14.1 6.35184 14.3055C6.48919 14.5111 6.5625 14.7528 6.5625 15C6.56212 15.3314 6.4303 15.6491 6.19597 15.8835C5.96163 16.1178 5.6439 16.2496 5.3125 16.25ZM14.6875 16.25C14.4403 16.25 14.1986 16.1767 13.993 16.0393C13.7875 15.902 13.6273 15.7068 13.5327 15.4784C13.438 15.2499 13.4133 14.9986 13.4615 14.7561C13.5098 14.5137 13.6288 14.2909 13.8036 14.1161C13.9784 13.9413 14.2012 13.8222 14.4436 13.774C14.6861 13.7258 14.9374 13.7505 15.1659 13.8451C15.3943 13.9398 15.5895 14.1 15.7268 14.3055C15.8642 14.5111 15.9375 14.7528 15.9375 15C15.9371 15.3314 15.8053 15.6491 15.571 15.8835C15.3366 16.1178 15.0189 16.2496 14.6875 16.25Z" fill="#019ADE"/>
</svg>
