<svg width="32" height="32" viewBox="0 0 32 32" fill="none" xmlns="http://www.w3.org/2000/svg">
<path d="M29.593 23.4957L18.5969 4.49572C18.3331 4.0407 17.9544 3.66299 17.4986 3.40041C17.0429 3.13784 16.5262 2.99963 16.0002 2.99963C15.4743 2.99963 14.9575 3.13784 14.5018 3.40041C14.0461 3.66299 13.6673 4.0407 13.4035 4.49572V4.4967L2.40744 23.4957C2.14344 23.9517 2.00417 24.4691 2.00366 24.996C2.00315 25.5228 2.14142 26.0405 2.40454 26.497C2.66766 26.9535 3.04637 27.3326 3.50254 27.5962C3.95872 27.8598 4.47628 27.9986 5.00315 27.9987H26.9973C27.5242 27.9986 28.0417 27.8598 28.4979 27.5962C28.9541 27.3326 29.3328 26.9535 29.5959 26.497C29.859 26.0405 29.9973 25.5228 29.9968 24.996C29.9963 24.4691 29.857 23.9517 29.593 23.4957ZM14.9992 12.9996C14.9992 12.7344 15.1046 12.4801 15.2921 12.2925C15.4797 12.105 15.734 11.9996 15.9992 11.9996C16.2645 11.9996 16.5188 12.105 16.7063 12.2925C16.8939 12.4801 16.9992 12.7344 16.9992 12.9996V17.9996C16.9992 18.2648 16.8939 18.5192 16.7063 18.7067C16.5188 18.8943 16.2645 18.9996 15.9992 18.9996C15.734 18.9996 15.4797 18.8943 15.2921 18.7067C15.1046 18.5192 14.9992 18.2648 14.9992 17.9996V12.9996ZM16 24C15.7033 24 15.4133 23.912 15.1666 23.7472C14.9199 23.5824 14.7277 23.3481 14.6142 23.074C14.5006 22.7999 14.4709 22.4983 14.5288 22.2074C14.5867 21.9164 14.7295 21.6491 14.9393 21.4393C15.1491 21.2296 15.4164 21.0867 15.7073 21.0288C15.9983 20.9709 16.2999 21.0006 16.574 21.1142C16.8481 21.2277 17.0824 21.42 17.2472 21.6666C17.412 21.9133 17.5 22.2033 17.5 22.5C17.5 22.8978 17.3419 23.2793 17.0606 23.5606C16.7793 23.8419 16.3978 24 16 24Z" fill="#019ADE"/>
</svg>
