<svg width="32" height="32" viewBox="0 0 32 32" fill="none" xmlns="http://www.w3.org/2000/svg">
<path d="M29.8411 9.19189C29.5549 8.95306 29.2075 8.79946 28.8382 8.74863C28.469 8.6978 28.0929 8.75178 27.7529 8.90442L21.4299 11.7147L17.7484 5.08789C17.5752 4.77608 17.3218 4.51626 17.0144 4.33537C16.707 4.15447 16.3568 4.05908 16.0001 4.05908C15.6434 4.05908 15.2933 4.15447 14.9859 4.33537C14.6785 4.51626 14.425 4.77608 14.2518 5.08789L10.5702 11.7146L4.24622 8.90393C3.90596 8.75275 3.53026 8.69955 3.1614 8.75032C2.79255 8.80109 2.44519 8.95381 2.15843 9.19129C1.87167 9.42878 1.6569 9.74159 1.53828 10.0945C1.41967 10.4475 1.40193 10.8265 1.48706 11.189L4.66772 24.7306C4.72824 24.9928 4.84157 25.2398 5.00079 25.4567C5.16 25.6736 5.36177 25.8558 5.59375 25.9921C5.82694 26.1293 6.08535 26.2184 6.35362 26.2538C6.62188 26.2893 6.89454 26.2705 7.1554 26.1985C12.9416 24.6011 19.0525 24.6005 24.839 26.1968C25.0997 26.2687 25.3723 26.2874 25.6404 26.252C25.9085 26.2165 26.1668 26.1276 26.3999 25.9904C26.6318 25.8542 26.8335 25.6722 26.9927 25.4554C27.1519 25.2387 27.2653 24.9918 27.3259 24.7299L30.5121 11.1901C30.5988 10.8276 30.5818 10.448 30.4632 10.0947C30.3445 9.74142 30.129 9.42858 29.8411 9.19189Z" fill="#019ADE"/>
</svg>
