<svg width="32" height="32" viewBox="0 0 32 32" fill="none" xmlns="http://www.w3.org/2000/svg">
<path d="M15.1498 19.7434C16.4916 18.8522 17.5107 17.5527 18.0564 16.0372C18.6022 14.5217 18.6455 12.8708 18.18 11.3287C17.7146 9.78669 16.765 8.43548 15.4719 7.47508C14.1788 6.51467 12.6108 5.99609 11 5.99609C9.38929 5.99609 7.82133 6.51467 6.52821 7.47508C5.23509 8.43548 4.28552 9.78669 3.82004 11.3287C3.35456 12.8708 3.3979 14.5217 3.94364 16.0372C4.48938 17.5527 5.50853 18.8522 6.85026 19.7434C4.56301 20.5872 2.58619 22.1061 1.18182 24.0989C1.07638 24.2486 1.0141 24.4245 1.00178 24.6072C0.989454 24.79 1.02756 24.9726 1.11193 25.1352C1.1963 25.2977 1.3237 25.434 1.48023 25.5291C1.63676 25.6242 1.8164 25.6745 1.99957 25.6745L20.0001 25.6739C20.1833 25.6739 20.3629 25.6235 20.5194 25.5284C20.676 25.4333 20.8034 25.297 20.8877 25.1344C20.9721 24.9718 21.0101 24.7892 20.9978 24.6065C20.9854 24.4237 20.9231 24.2479 20.8177 24.0981C19.4134 22.1057 17.4368 20.5871 15.1498 19.7434Z" fill="#019ADE"/>
<path d="M31.0078 24.0982C29.6035 22.1057 27.6269 20.5871 25.3399 19.7434C26.8268 18.7536 27.9117 17.2657 28.3992 15.5473C28.8868 13.8289 28.745 11.9929 27.9995 10.3697C27.2539 8.74647 25.9535 7.44265 24.3323 6.69282C22.7111 5.943 20.8755 5.79641 19.1558 6.27943C18.9997 6.32333 18.8566 6.40455 18.7388 6.51608C18.6211 6.62761 18.5322 6.7661 18.4799 6.91961C18.4276 7.07312 18.4135 7.23705 18.4386 7.39726C18.4638 7.55747 18.5275 7.70916 18.6244 7.83924C19.7548 9.35774 20.4047 11.1799 20.4903 13.0711C20.5758 14.9622 20.0932 16.8356 19.1045 18.45C18.9739 18.6629 18.9278 18.917 18.9751 19.1622C19.0224 19.4074 19.1597 19.6261 19.3601 19.7752C19.7393 20.0573 20.104 20.3583 20.4531 20.677C20.4711 20.6966 20.4893 20.7161 20.5092 20.7345C21.8439 21.9684 22.9256 23.4504 23.694 25.0977C23.7745 25.2701 23.9026 25.4159 24.0631 25.5181C24.2236 25.6203 24.4099 25.6746 24.6002 25.6746L30.1903 25.6739C30.3735 25.6739 30.5531 25.6235 30.7096 25.5284C30.8661 25.4333 30.9935 25.297 31.0778 25.1344C31.1622 24.9718 31.2002 24.7892 31.1879 24.6065C31.1756 24.4237 31.1133 24.2479 31.0078 24.0981L31.0078 24.0982Z" fill="#019ADE"/>
</svg>
