<svg width="32" height="32" viewBox="0 0 32 32" fill="none" xmlns="http://www.w3.org/2000/svg">
<g clip-path="url(#clip0_288_3207)">
<path d="M16 3.75C16.5181 3.75 16.9375 3.33063 16.9375 2.8125V0.9375C16.9375 0.419375 16.5181 0 16 0C15.4819 0 15.0625 0.419375 15.0625 0.9375V2.8125C15.0625 3.33063 15.4819 3.75 16 3.75ZM20.4128 5.35031L22.2878 3.47531C22.6541 3.10912 22.6541 2.51588 22.2878 2.14969C21.9216 1.7835 21.3284 1.78344 20.9622 2.14969L19.0872 4.02469C18.7209 4.39087 18.7209 4.98413 19.0872 5.35031C19.4534 5.7165 20.0466 5.71656 20.4128 5.35031ZM11.5872 5.35031C11.9534 5.71656 12.5466 5.71656 12.9128 5.35031C13.279 4.98406 13.2791 4.39087 12.9128 4.02469L11.0378 2.14969C10.6716 1.78344 10.0784 1.78344 9.71219 2.14969C9.346 2.51594 9.34594 3.10912 9.71219 3.47531L11.5872 5.35031ZM8.4375 13.25C8.4375 11.1819 6.75562 9.5 4.6875 9.5C2.61937 9.5 0.9375 11.1819 0.9375 13.25C0.9375 15.3181 2.61937 17 4.6875 17C6.75562 17 8.4375 15.3181 8.4375 13.25Z" fill="#019ADE"/>
<path d="M16 7.5625C14.4492 7.5625 13.1875 8.82425 13.1875 10.375C13.1875 13.9931 10.1806 17 6.5625 17H4.6875C2.103 17 0 19.103 0 21.6875V31.0625C0 31.5806 0.419375 32 0.9375 32H8.4375C8.95481 32 9.3625 31.5806 9.3625 31.0635L9.36794 22.2964C14.8427 21.0064 18.8125 16.0769 18.8125 10.375C18.8125 8.82419 17.5508 7.5625 16 7.5625ZM31.0625 13.25C31.0625 11.1819 29.3806 9.5 27.3125 9.5C25.2444 9.5 23.5625 11.1819 23.5625 13.25C23.5625 15.3181 25.2444 17 27.3125 17C29.3806 17 31.0625 15.3181 31.0625 13.25Z" fill="#019ADE"/>
<path d="M27.3125 17H25.4375C23.2817 17 21.3194 15.8787 20.1223 14.2683C19.5737 16.2039 18.6182 17.9604 17.342 19.4646C18.8369 20.7842 20.684 21.8316 22.6318 22.2954L22.6374 31.0635C22.6375 31.5806 23.0452 32 23.5625 32H31.0625C31.5806 32 32 31.5806 32 31.0625V21.6875C32 19.103 29.897 17 27.3125 17Z" fill="#019ADE"/>
</g>
<defs>
<clipPath id="clip0_288_3207">
<rect width="32" height="32" fill="white"/>
</clipPath>
</defs>
</svg>
