<svg width="18" height="18" viewBox="0 0 18 18" fill="none" xmlns="http://www.w3.org/2000/svg">
<path d="M15.8809 7.22921C15.6157 6.95263 15.3414 6.66671 15.2378 6.41615C15.1426 6.18599 15.1368 5.80476 15.1313 5.43604C15.1209 4.74987 15.1092 3.97218 14.5685 3.43151C14.0278 2.89085 13.2501 2.8791 12.564 2.86874C12.1952 2.86317 11.814 2.85741 11.5838 2.76217C11.3334 2.65855 11.0474 2.38431 10.7708 2.11906C10.285 1.6531 9.73423 1.125 9 1.125C8.26577 1.125 7.71508 1.6531 7.22921 2.11906C6.95263 2.38431 6.66671 2.65855 6.41615 2.76217C6.18599 2.85741 5.80476 2.86317 5.43604 2.86874C4.74987 2.8791 3.97218 2.89085 3.43151 3.43151C2.89085 3.97218 2.8791 4.74987 2.86874 5.43604C2.86317 5.80476 2.85741 6.18599 2.76217 6.41615C2.65855 6.66664 2.38431 6.95263 2.11906 7.22921C1.6531 7.71501 1.125 8.26577 1.125 9C1.125 9.73423 1.6531 10.2849 2.11906 10.7708C2.38431 11.0474 2.65855 11.3333 2.76217 11.5838C2.85741 11.814 2.86317 12.1952 2.86874 12.564C2.8791 13.2501 2.89085 14.0278 3.43151 14.5685C3.97218 15.1092 4.74987 15.1209 5.43604 15.1313C5.80476 15.1368 6.18599 15.1426 6.41615 15.2378C6.66664 15.3414 6.95263 15.6157 7.22921 15.8809C7.71501 16.3469 8.26577 16.875 9 16.875C9.73423 16.875 10.2849 16.3469 10.7708 15.8809C11.0474 15.6157 11.3333 15.3414 11.5838 15.2378C11.814 15.1426 12.1952 15.1368 12.564 15.1313C13.2501 15.1209 14.0278 15.1092 14.5685 14.5685C15.1092 14.0278 15.1209 13.2501 15.1313 12.564C15.1368 12.1952 15.1426 11.814 15.2378 11.5838C15.3414 11.3334 15.6157 11.0474 15.8809 10.7708C16.3469 10.285 16.875 9.73423 16.875 9C16.875 8.26577 16.3469 7.71508 15.8809 7.22921ZM12.4821 7.71941L8.35709 11.6569C8.25246 11.7568 8.11337 11.8125 7.96873 11.8125C7.82408 11.8125 7.68499 11.7568 7.58036 11.6569L5.51788 9.68816C5.46442 9.63716 5.42152 9.57613 5.39164 9.50856C5.36177 9.44098 5.3455 9.36819 5.34376 9.29432C5.34203 9.22046 5.35486 9.14697 5.38153 9.07807C5.4082 9.00916 5.44818 8.94619 5.4992 8.89274C5.55021 8.83929 5.61125 8.79642 5.67884 8.76657C5.74642 8.73672 5.81923 8.72047 5.8931 8.71876C5.96696 8.71706 6.04044 8.72992 6.10933 8.75661C6.17823 8.78331 6.24119 8.82331 6.29462 8.87434L7.96873 10.4724L11.7054 6.90559C11.7588 6.85456 11.8218 6.81456 11.8907 6.78786C11.9596 6.76117 12.033 6.74831 12.1069 6.75001C12.1808 6.75172 12.2536 6.76797 12.3212 6.79782C12.3887 6.82767 12.4498 6.87054 12.5008 6.92399C12.5518 6.97744 12.5918 7.04042 12.6185 7.10932C12.6451 7.17822 12.658 7.25171 12.6562 7.32557C12.6545 7.39944 12.6382 7.47223 12.6084 7.53981C12.5785 7.60739 12.5356 7.66841 12.4821 7.71941Z" fill="#019ADE"/>
</svg>
