<svg width="11" height="11" viewBox="0 0 11 11" fill="none" xmlns="http://www.w3.org/2000/svg">
<path d="M5.44745 0.40023C6.80823 0.400818 8.08567 0.930943 9.04608 1.89242C10.0065 2.8539 10.5359 4.13186 10.5353 5.49105C10.5342 8.29504 8.25295 10.5766 5.44843 10.578H5.4455C4.59423 10.5776 3.75775 10.3641 3.01483 9.95882L0.318542 10.6668L1.04022 8.03011C0.595052 7.25863 0.360154 6.38372 0.360535 5.48714C0.361651 2.6825 2.64373 0.400472 5.44745 0.40023ZM5.4494 1.25961C3.11735 1.25968 1.22101 3.15613 1.21991 5.48714C1.21958 6.28599 1.44323 7.06402 1.86639 7.73714L1.96698 7.8973L1.53925 9.45785L3.13983 9.03793L3.29413 9.12972C3.9433 9.51495 4.68776 9.7183 5.44647 9.71859H5.44745C7.77782 9.71859 9.67495 7.82236 9.67596 5.49105C9.6764 4.3613 9.2369 3.29904 8.43866 2.49984C7.64038 1.70063 6.57874 1.26 5.4494 1.25961ZM3.89081 3.14242C3.96873 3.14621 4.07301 3.11332 4.17596 3.36019C4.28188 3.6147 4.53677 4.2409 4.56854 4.30453C4.60027 4.3681 4.62155 4.44242 4.57928 4.52718C4.53691 4.61195 4.5149 4.6649 4.45135 4.7391C4.38785 4.81326 4.31806 4.90483 4.26093 4.96175C4.19731 5.02512 4.13114 5.09431 4.20526 5.22152C4.27947 5.34887 4.53472 5.7645 4.91229 6.1014C5.39762 6.53429 5.80748 6.66861 5.93475 6.73226C6.06179 6.7959 6.13601 6.78577 6.21014 6.70101C6.28429 6.61618 6.52777 6.32922 6.61249 6.20199C6.69713 6.07513 6.78224 6.09615 6.89862 6.13851C7.0151 6.18095 7.63928 6.48876 7.76678 6.55257C7.89389 6.61622 7.97916 6.64799 8.01093 6.70101C8.04257 6.75446 8.04243 7.00893 7.93671 7.3055C7.83064 7.60235 7.3225 7.87352 7.07831 7.91C6.85948 7.94269 6.58267 7.95579 6.2785 7.85921C6.09389 7.80064 5.85618 7.72261 5.55292 7.59164C4.27931 7.04151 3.44702 5.75984 3.38202 5.67269C3.31846 5.58787 2.86346 4.98291 2.86346 4.35726C2.86351 3.73175 3.1913 3.42396 3.3078 3.29671C3.4242 3.16965 3.56195 3.13758 3.64667 3.13754C3.73139 3.13754 3.81675 3.1387 3.89081 3.14242Z" fill="#FDFDFD"/>
</svg>
