<?xml version="1.0" encoding="utf-8"?><svg xmlns="http://www.w3.org/2000/svg" xmlns:xlink="http://www.w3.org/1999/xlink"><symbol fill="none" viewBox="0 0 14 15" id="arrow-down" xmlns="http://www.w3.org/2000/svg"><path d="M11.375 5.75 7 10.125 2.625 5.75" stroke="currentColor" stroke-linecap="round" stroke-linejoin="round"/></symbol><symbol fill="none" viewBox="0 0 14 15" id="phone" xmlns="http://www.w3.org/2000/svg"><path d="M12.14 9.164 9.577 8.066a.872.872 0 0 0-.83.076l-1.37.913A4.186 4.186 0 0 1 5.453 7.14l.91-1.39a.873.873 0 0 0 .072-.824L5.336 2.36a.877.877 0 0 0-.91-.524A3.066 3.066 0 0 0 1.75 4.875c0 4.342 3.533 7.875 7.875 7.875a3.066 3.066 0 0 0 3.038-2.675.877.877 0 0 0-.524-.911Z" fill="currentColor"/></symbol><symbol fill="none" viewBox="0 0 32 32" id="plus" xmlns="http://www.w3.org/2000/svg"><path d="M5 16h22M16 5v22" stroke="currentColor" stroke-width="2" stroke-linecap="round" stroke-linejoin="round"/></symbol><symbol fill="none" viewBox="0 0 16 16" id="search" xmlns="http://www.w3.org/2000/svg"><path d="M7.25 12.5a5.25 5.25 0 1 0 0-10.5 5.25 5.25 0 0 0 0 10.5ZM10.962 10.963 14 14" stroke="currentColor" stroke-width="2" stroke-linecap="round" stroke-linejoin="round"/></symbol><symbol fill="none" viewBox="0 0 14 14" id="star" xmlns="http://www.w3.org/2000/svg"><path d="M6.136 1.484a1 1 0 0 1 1.728 0l1.5 2.576a1 1 0 0 0 .653.474l2.913.63a1 1 0 0 1 .534 1.644l-1.986 2.223a1 1 0 0 0-.249.767l.3 2.966a1 1 0 0 1-1.398 1.016l-2.728-1.202a1 1 0 0 0-.806 0L3.869 13.78a1 1 0 0 1-1.398-1.016l.3-2.966a1 1 0 0 0-.25-.767L.536 6.808a1 1 0 0 1 .535-1.643l2.913-.631a1 1 0 0 0 .653-.474l1.5-2.576Z" fill="currentColor"/></symbol><symbol fill="none" viewBox="0 0 24 24" id="x" xmlns="http://www.w3.org/2000/svg"><path d="m13.06 12 6.22-6.22a.75.75 0 0 0-1.06-1.06L12 10.94 5.78 4.72a.75.75 0 0 0-1.06 1.06L10.94 12l-6.22 6.22a.75.75 0 1 0 1.06 1.06L12 13.06l6.22 6.22a.75.75 0 0 0 1.06-1.06L13.06 12Z" fill="#485155"/></symbol></svg>