<?xml version="1.0" encoding="utf-8"?><svg viewBox="0 0 48 48" xmlns="http://www.w3.org/2000/svg" xmlns:xlink="http://www.w3.org/1999/xlink"><style>:root>svg{display:none}:root>svg:target{display:block}</style><svg fill="none" viewBox="0 0 14 15" id="arrow-down" xmlns="http://www.w3.org/2000/svg"><path d="M11.375 5.75 7 10.125 2.625 5.75" stroke="currentColor" stroke-linecap="round" stroke-linejoin="round"/></svg><svg fill="none" viewBox="0 0 48 48" id="burger" xmlns="http://www.w3.org/2000/svg"><path d="M7.5 12h33M7.5 24h33M7.5 36H27" stroke="#485155" stroke-width="4" stroke-linecap="round" stroke-linejoin="round"/></svg><svg fill="none" viewBox="0 0 14 14" id="email" xmlns="http://www.w3.org/2000/svg"><path d="M12.687 3.052a.392.392 0 0 0-.016-.108.445.445 0 0 0-.091-.169l-.008-.008-.006-.007a.364.364 0 0 0-.048-.043c-.006-.005-.012-.01-.018-.013l-.017-.011a.421.421 0 0 0-.02-.012l-.017-.01-.02-.009-.02-.008-.02-.007-.02-.006-.02-.005a.456.456 0 0 0-.087-.01l-.009-.001H1.741a.433.433 0 0 0-.066.007l-.02.004-.02.005-.021.006-.02.007-.02.008-.02.01-.017.009a.438.438 0 0 0-.02.012l-.017.01a.409.409 0 0 0-.066.057l-.007.007-.006.008a.465.465 0 0 0-.086.15.454.454 0 0 0-.022.127V10.5a.876.876 0 0 0 .875.875h9.624a.876.876 0 0 0 .876-.875V3.062l-.001-.01Zm-10.5 1.005L5.399 7l-3.21 2.943V4.057Zm.688 6.443 3.17-2.906.66.603a.438.438 0 0 0 .59 0l.66-.603 3.17 2.906h-8.25ZM8.602 7l3.21-2.943.001 5.886L8.602 7Z" fill="#485155"/></svg><svg fill="none" viewBox="0 0 14 14" id="location" xmlns="http://www.w3.org/2000/svg"><path d="M12.004 4.836 2.745 1.631a.875.875 0 0 0-1.113 1.113l3.205 9.26a.862.862 0 0 0 .826.588h.016a.862.862 0 0 0 .821-.618l1.288-4.186 4.187-1.289a.875.875 0 0 0 .029-1.663Z" fill="#485155"/></svg><svg fill="none" viewBox="0 0 14 15" id="phone" xmlns="http://www.w3.org/2000/svg"><path d="M12.14 9.164 9.577 8.066a.872.872 0 0 0-.83.076l-1.37.913A4.186 4.186 0 0 1 5.453 7.14l.91-1.39a.873.873 0 0 0 .072-.824L5.336 2.36a.877.877 0 0 0-.91-.524A3.066 3.066 0 0 0 1.75 4.875c0 4.342 3.533 7.875 7.875 7.875a3.066 3.066 0 0 0 3.038-2.675.877.877 0 0 0-.524-.911Z" fill="currentColor"/></svg><svg fill="none" viewBox="0 0 32 32" id="plus" xmlns="http://www.w3.org/2000/svg"><path d="M5 16h22M16 5v22" stroke="currentColor" stroke-width="2" stroke-linecap="round" stroke-linejoin="round"/></svg><svg fill="none" viewBox="0 0 16 16" id="search" xmlns="http://www.w3.org/2000/svg"><path d="M7.25 12.5a5.25 5.25 0 1 0 0-10.5 5.25 5.25 0 0 0 0 10.5ZM10.962 10.963 14 14" stroke="currentColor" stroke-width="2" stroke-linecap="round" stroke-linejoin="round"/></svg><svg fill="none" viewBox="0 0 14 14" id="star" xmlns="http://www.w3.org/2000/svg"><path d="M6.136 1.484a1 1 0 0 1 1.728 0l1.5 2.576a1 1 0 0 0 .653.474l2.913.63a1 1 0 0 1 .534 1.644l-1.986 2.223a1 1 0 0 0-.249.767l.3 2.966a1 1 0 0 1-1.398 1.016l-2.728-1.202a1 1 0 0 0-.806 0L3.869 13.78a1 1 0 0 1-1.398-1.016l.3-2.966a1 1 0 0 0-.25-.767L.536 6.808a1 1 0 0 1 .535-1.643l2.913-.631a1 1 0 0 0 .653-.474l1.5-2.576Z" fill="currentColor"/></svg><svg fill="none" viewBox="0 0 14 14" id="time" xmlns="http://www.w3.org/2000/svg"><path d="M7 1.313A5.687 5.687 0 1 0 12.688 7 5.694 5.694 0 0 0 7 1.312Zm3.063 6.125H7A.437.437 0 0 1 6.562 7V3.937a.438.438 0 0 1 .875 0v2.626h2.625a.438.438 0 0 1 0 .875Z" fill="#485155"/></svg><svg fill="none" viewBox="0 0 24 24" id="x" xmlns="http://www.w3.org/2000/svg"><path d="m13.06 12 6.22-6.22a.75.75 0 0 0-1.06-1.06L12 10.94 5.78 4.72a.75.75 0 0 0-1.06 1.06L10.94 12l-6.22 6.22a.75.75 0 1 0 1.06 1.06L12 13.06l6.22 6.22a.75.75 0 0 0 1.06-1.06L13.06 12Z" fill="#485155"/></svg></svg>