<svg width="32" height="32" viewBox="0 0 32 32" fill="none" xmlns="http://www.w3.org/2000/svg">
<path d="M21.6471 21.0346C22.1669 21.0346 22.5882 21.456 22.5882 21.9758C22.5882 22.4956 22.1669 22.917 21.6471 22.917H16C15.4802 22.917 15.0588 22.4956 15.0588 21.9758C15.0588 21.456 15.4802 21.0346 16 21.0346V15.9218C14.1609 16.9887 13.1765 18.2701 13.1765 19.6229C13.1765 22.1611 14.3054 24.4189 16.6198 26.444C17.2738 27.0162 16.8691 28.0935 16.0001 28.0935H3.29413C3.12628 28.0935 2.96148 28.0486 2.81682 27.9635C2.67215 27.8784 2.55289 27.7561 2.47137 27.6094C0.827625 24.6506 0 21.6712 0 18.6817C0 8.6293 11.4736 2.75593 31.1229 4.09561C31.6167 4.1293 32 4.53968 32 5.03461V12.0934C32 12.6132 31.5786 13.0346 31.0588 13.0346V17.7405C31.5786 17.7405 32 18.1619 32 18.6817C32 19.2015 31.5786 19.6229 31.0588 19.6229H25.4118C24.8919 19.6229 24.4706 19.2015 24.4706 18.6817C24.4706 18.1619 24.8919 17.7405 25.4118 17.7405V13.3237C24.0551 13.4711 22.7979 13.6716 21.6471 13.9176V21.0346ZM9.01775 24.8174C8.80639 24.4327 8.61481 24.0375 8.44375 23.6334C8.24156 23.1545 7.6895 22.9302 7.21063 23.1324C6.73175 23.3346 6.50744 23.8867 6.70962 24.3655C6.90559 24.8287 7.12511 25.2817 7.36731 25.7225C7.61731 26.1782 8.18937 26.3451 8.64513 26.0951C9.10088 25.8452 9.26775 25.2731 9.01775 24.8174ZM7.53188 19.3934C7.53023 19.3136 7.52939 19.2339 7.52938 19.1541C7.52938 18.827 7.561 18.5054 7.62406 18.1876C7.72531 17.6777 7.39406 17.1823 6.88419 17.0811C6.37438 16.9799 5.879 17.3111 5.77775 17.821C5.69058 18.2601 5.64679 18.7067 5.647 19.1543C5.647 19.2472 5.648 19.3397 5.64988 19.4322C5.66056 19.9519 6.09056 20.3645 6.61025 20.3537C7.13 20.343 7.54262 19.9131 7.53188 19.3934ZM9.75469 14.7024C10.0608 14.4197 10.3973 14.1441 10.7634 13.8768C11.1832 13.5703 11.2751 12.9815 10.9686 12.5617C10.6621 12.1419 10.0732 12.0501 9.65344 12.3566C9.23006 12.6657 8.83769 12.987 8.4775 13.3197C8.09569 13.6724 8.07206 14.2678 8.42475 14.6497C8.77744 15.0315 9.37288 15.0551 9.75469 14.7024ZM14.6944 11.7752C15.1166 11.6078 15.5431 11.4516 15.9734 11.3067C16.4659 11.1404 16.7304 10.6064 16.5642 10.1139C16.3979 9.62143 15.8639 9.35693 15.3714 9.52318C14.9099 9.67865 14.4525 9.84623 13.9997 10.0257C13.5166 10.2176 13.2805 10.7647 13.4723 11.2478C13.6642 11.7309 14.2113 11.967 14.6944 11.7752ZM20.4471 10.1497C20.8994 10.0632 21.353 9.984 21.8079 9.91218C22.3213 9.83093 22.6716 9.34893 22.5904 8.83549C22.5092 8.32205 22.0272 7.97174 21.5138 8.05293C21.0388 8.12796 20.5651 8.21066 20.0929 8.30099C19.5824 8.3988 19.2478 8.89193 19.3456 9.40243C19.4434 9.91293 19.9365 10.2475 20.4471 10.1497ZM26.3446 9.41161C26.8067 9.38088 27.2692 9.35567 27.7319 9.33599C28.2512 9.3138 28.6542 8.8748 28.632 8.35549C28.6098 7.83618 28.1708 7.43318 27.6515 7.45536C27.1739 7.47572 26.6965 7.50177 26.2196 7.53349C25.7009 7.56805 25.3084 8.01649 25.343 8.53511C25.3775 9.05368 25.8259 9.44611 26.3446 9.41161ZM27.2941 13.1556V17.7406H29.1765V13.0637C28.5485 13.0832 27.921 13.1138 27.2941 13.1556ZM19.5824 14.4464C18.9776 14.6296 18.4104 14.8285 17.8823 15.0421V21.0347H19.7647V14.4464H19.5824Z" fill="#019ADE"/>
</svg>
