<svg width="32" height="32" viewBox="0 0 32 32" fill="none" xmlns="http://www.w3.org/2000/svg">
<path d="M26.3198 11.4578V9.22328C26.3137 9.22328 26.3077 9.22297 26.3016 9.22297C26.2993 9.22297 26.297 9.22335 26.2947 9.22335H5.68098V11.4578C5.68098 12.06 6.17092 12.5499 6.7731 12.5499H25.2277C25.8299 12.5499 26.3198 12.06 26.3198 11.4578ZM23.5905 31.0357V14.4247H8.41033V31.0357C8.41033 31.5683 8.84209 32 9.37465 32H10.8253V17.7737C10.8253 17.269 11.2132 16.8346 11.7174 16.8109C12.2557 16.7855 12.7 17.2145 12.7 17.7472V32H15.1151V17.7737C15.1151 17.269 15.5029 16.8346 16.0071 16.8109C16.5454 16.7855 16.9898 17.2145 16.9898 17.7472V32H19.4048V17.7737C19.4048 17.269 19.7927 16.8346 20.2969 16.8109C20.8352 16.7855 21.2796 17.2145 21.2796 17.7472V32H22.6262C23.1587 32 23.5905 31.5683 23.5905 31.0357ZM26.5012 7.34452C28.3751 7.25834 29.9105 5.72291 29.9968 3.84896C30.0435 2.83283 29.6839 1.86977 28.9841 1.13705C28.2838 0.403824 27.34 0 26.3265 0H5.74304C3.70523 0 2.02625 1.62623 2.00032 3.62523C1.98745 4.61649 2.36352 5.55056 3.05925 6.25534C3.75516 6.96032 4.68386 7.34852 5.6743 7.34852C6.34059 7.34852 6.99276 7.16867 7.56037 6.82833C8.12887 6.48744 8.20686 5.91595 8.09025 5.49469C7.97207 5.06774 7.60624 4.61161 6.93408 4.61161C6.62502 4.61106 6.32784 4.73066 6.10531 4.94513C5.73185 5.30365 5.13843 5.29165 4.77991 4.91826C4.42133 4.54487 4.43339 3.95144 4.80678 3.59286C5.38165 3.04087 6.13712 2.73685 6.93408 2.73685C8.33253 2.73685 9.52332 3.64417 9.89708 4.99456C10.1252 5.81883 10.0053 6.65779 9.60324 7.34852H22.3347C21.8995 6.63836 21.781 5.76647 22.0416 4.90532C22.4401 3.58805 23.5841 2.73685 24.9563 2.73685C25.7706 2.73685 26.5637 3.07118 27.1324 3.65417C27.4939 4.02475 27.4865 4.61823 27.1159 4.97969C26.7453 5.34114 26.1518 5.33383 25.7903 4.96319C25.6816 4.85222 25.5518 4.76398 25.4087 4.70362C25.2655 4.64326 25.1117 4.61199 24.9563 4.61161C24.317 4.61161 23.9585 5.04374 23.8361 5.44813C23.778 5.63998 23.6395 6.29971 24.2932 6.73516C24.9463 7.17023 25.7098 7.38139 26.5012 7.34452Z" fill="#019ADE"/>
</svg>
