<svg width="32" height="32" viewBox="0 0 32 32" fill="none" xmlns="http://www.w3.org/2000/svg">
<path d="M9.75 17C10.0152 17 10.2696 16.8946 10.4571 16.7071C10.6446 16.5196 10.75 16.2652 10.75 16V4.5C10.75 4.23478 10.6446 3.98043 10.4571 3.79289C10.2696 3.60536 10.0152 3.5 9.75 3.5C9.48478 3.5 9.23043 3.60536 9.04289 3.79289C8.85536 3.98043 8.75 4.23478 8.75 4.5V16C8.75 16.2652 8.85536 16.5196 9.04289 16.7071C9.23043 16.8946 9.48478 17 9.75 17ZM28.5 18.6095C28.4474 18.6456 28.3933 18.6795 28.338 18.7113L17.118 25.137C16.7776 25.3319 16.3921 25.4345 15.9999 25.4345C15.6076 25.4345 15.2222 25.3319 14.8818 25.137L3.662 18.7113C3.60665 18.6795 3.55261 18.6456 3.5 18.6095V20.5362C3.50003 20.7537 3.55678 20.9673 3.66463 21.1561C3.77249 21.3449 3.92772 21.5023 4.115 21.6127L15.365 28.2502C15.5574 28.3637 15.7767 28.4236 16 28.4236C16.2233 28.4236 16.4426 28.3637 16.635 28.2502L27.8853 21.6127C28.0725 21.5023 28.2277 21.3449 28.3355 21.1561C28.4433 20.9673 28.5 20.7536 28.5 20.5362V18.6095Z" fill="#019ADE"/>
<path d="M17 19.5C17 19.7652 16.8946 20.0196 16.7071 20.2071C16.5196 20.3946 16.2652 20.5 16 20.5C15.7348 20.5 15.4804 20.3946 15.2929 20.2071C15.1054 20.0196 15 19.7652 15 19.5V4.5C15 4.23478 15.1054 3.98043 15.2929 3.79289C15.4804 3.60536 15.7348 3.5 16 3.5C16.2652 3.5 16.5196 3.60536 16.7071 3.79289C16.8946 3.98043 17 4.23478 17 4.5V19.5ZM22 17C22.2652 17 22.5196 16.8946 22.7071 16.7071C22.8946 16.5196 23 16.2652 23 16V4.5C23 4.23478 22.8946 3.98043 22.7071 3.79289C22.5196 3.60536 22.2652 3.5 22 3.5C21.7348 3.5 21.4804 3.60536 21.2929 3.79289C21.1054 3.98043 21 4.23478 21 4.5V16C21 16.2652 21.1054 16.5196 21.2929 16.7071C21.4804 16.8946 21.7348 17 22 17Z" fill="#019ADE"/>
<path d="M11.75 15.9999C11.75 16.5304 11.5393 17.0391 11.1642 17.4142C10.7891 17.7892 10.2804 17.9999 9.74997 17.9999C9.21953 17.9999 8.71083 17.7892 8.33575 17.4142C7.96068 17.0391 7.74997 16.5304 7.74997 15.9999V13.6499L4.16647 15.6697C3.32147 16.1459 3.31747 17.3612 4.15897 17.8434L15.379 24.2692C15.5681 24.3775 15.7822 24.4344 16.0001 24.4344C16.218 24.4344 16.4321 24.3775 16.6212 24.2692L27.841 17.8432C28.6825 17.3612 28.6785 16.1459 27.8335 15.6697L24 13.5089V15.9999C24 16.5304 23.7893 17.0391 23.4142 17.4142C23.0391 17.7892 22.5304 17.9999 22 17.9999C21.4695 17.9999 20.9608 17.7892 20.5858 17.4142C20.2107 17.0391 20 16.5304 20 15.9999V11.2544L18 10.1272V19.4999C18 20.0304 17.7893 20.5391 17.4142 20.9142C17.0391 21.2892 16.5304 21.4999 16 21.4999C15.4695 21.4999 14.9608 21.2892 14.5858 20.9142C14.2107 20.5391 14 20.0304 14 19.4999V10.1274L11.75 11.3954V15.9999Z" fill="#019ADE"/>
</svg>
