<svg width="32" height="32" viewBox="0 0 32 32" fill="none" xmlns="http://www.w3.org/2000/svg">
<path d="M6.96574 4.44063L9.14318 2.26331L11.3204 4.44063C11.5034 4.62375 11.7434 4.71525 11.9832 4.71525C12.2231 4.71525 12.4631 4.62369 12.6461 4.44063C13.0122 4.07456 13.0122 3.481 12.6462 3.11481L9.80611 0.274625C9.71907 0.187557 9.61573 0.118489 9.502 0.0713685C9.38826 0.0242475 9.26635 -3.72438e-06 9.14324 4.29011e-10L9.14318 4.29011e-10C8.89455 4.29011e-10 8.65611 0.09875 8.4803 0.274625L5.63993 3.11481C5.27386 3.48088 5.27386 4.07444 5.63993 4.44063C6.00605 4.80681 6.59961 4.80669 6.96574 4.44063ZM18.1771 4.44063C18.3529 4.61641 18.5913 4.71515 18.84 4.71515C19.0886 4.71515 19.327 4.61641 19.5029 4.44063L22.3431 1.60044C22.7091 1.23438 22.7091 0.64075 22.3431 0.274625C21.977 -0.0915 21.3834 -0.0914375 21.0172 0.274625L18.84 2.45187L16.6628 0.274625C16.2967 -0.0915 15.7031 -0.0915 15.3369 0.274625C14.9709 0.640687 14.9709 1.23425 15.3369 1.60044L18.1771 4.44063ZM29.0542 18.3575C29.301 18.3575 29.5423 18.2575 29.7172 18.0831C29.8924 17.9068 29.991 17.6685 29.9917 17.42C29.9917 17.1737 29.8916 16.9319 29.7172 16.7569C29.5422 16.5825 29.301 16.4825 29.0542 16.4825C28.8073 16.4825 28.5654 16.5825 28.3911 16.7569C28.2167 16.9319 28.1167 17.1731 28.1167 17.42C28.1167 17.6669 28.2167 17.9087 28.3911 18.0831C28.5654 18.2575 28.8073 18.3575 29.0542 18.3575ZM29.0542 20.4993C28.8073 20.4993 28.566 20.5994 28.3911 20.7738C28.2159 20.9501 28.1173 21.1883 28.1167 21.4368C28.1167 21.6837 28.2167 21.925 28.3911 22.0999C28.5675 22.275 28.8057 22.3735 29.0542 22.3743C29.3004 22.3743 29.5423 22.2743 29.7172 22.0999C29.8923 21.9235 29.9909 21.6853 29.9917 21.4368C29.9917 21.19 29.8916 20.9481 29.7172 20.7738C29.5409 20.5987 29.3027 20.5001 29.0542 20.4993ZM2.0083 10.3048V31.0625C2.0083 31.5802 2.42805 32 2.9458 32H13.0541V6.85687H5.45618C3.55505 6.85687 2.0083 8.40362 2.0083 10.3048ZM22.5271 6.85687H14.9291V32H25.0374C25.5551 32 25.9749 31.5802 25.9749 31.0625V10.3048C25.9749 8.40362 24.4282 6.85687 22.5271 6.85687Z" fill="#019ADE"/>
</svg>
