<svg width="14" height="14" fill="none" xmlns="http://www.w3.org/2000/svg"><path d="M12.687 3.052a.392.392 0 0 0-.016-.108.445.445 0 0 0-.091-.169l-.008-.008-.006-.007a.364.364 0 0 0-.048-.043c-.006-.005-.012-.01-.018-.013l-.017-.011a.421.421 0 0 0-.02-.012l-.017-.01-.02-.009-.02-.008-.02-.007-.02-.006-.02-.005a.456.456 0 0 0-.087-.01l-.009-.001H1.741a.433.433 0 0 0-.066.007l-.02.004-.02.005-.021.006-.02.007-.02.008-.02.01-.017.009a.438.438 0 0 0-.02.012l-.017.01a.409.409 0 0 0-.066.057l-.007.007-.006.008a.465.465 0 0 0-.086.15.454.454 0 0 0-.022.127V10.5a.876.876 0 0 0 .875.875h9.624a.876.876 0 0 0 .876-.875V3.062l-.001-.01Zm-10.5 1.005L5.399 7l-3.21 2.943V4.057Zm.688 6.443 3.17-2.906.66.603a.438.438 0 0 0 .59 0l.66-.603 3.17 2.906h-8.25ZM8.602 7l3.21-2.943.001 5.886L8.602 7Z" fill="#485155"/></svg>